<?xml version="1.0" encoding="utf-8"?>
<!-- Generator: Adobe Illustrator 19.0.0, SVG Export Plug-In . SVG Version: 6.00 Build 0)  -->
<svg version="1.1" id="Layer_1" xmlns="http://www.w3.org/2000/svg" xmlns:xlink="http://www.w3.org/1999/xlink" x="0px" y="0px"
	 viewBox="0 0 500 327.1" style="enable-background:new 0 0 500 327.1;" xml:space="preserve">
<style type="text/css">
	.st0{fill:#DCA96E;}
	.st1{fill:url(#SVGID_1_);}
	.st2{fill:#2F68B2;}
	.st3{fill:url(#SVGID_2_);}
	.st4{fill:#3D7CBF;}
	.st5{fill:#FBC4AE;}
	.st6{fill:url(#SVGID_3_);}
	.st7{fill:#B62026;}
	.st8{fill:url(#SVGID_4_);}
	.st9{fill:#F8D2A1;}
	.st10{fill:none;stroke:#D4DBE3;stroke-width:0.25;stroke-miterlimit:10;}
	.st11{fill:#FDBA12;}
	.st12{fill:#D3DDEB;}
	.st13{fill:none;stroke:#A6AEBB;stroke-width:0.5;stroke-miterlimit:10;}
	.st14{fill:#5FBF83;}
	.st15{fill:#89CC9E;}
	.st16{fill:#F2BA7A;}
	.st17{fill:#A6AEBB;}
	.st18{fill:#056835;}
	.st19{fill:#238046;}
	.st20{fill:#FFFFFF;}
</style>
<polygon class="st0" points="424,250.4 456.9,321.4 460.6,321.4 432.2,245.8 "/>
<polygon class="st0" points="390,251.9 357.2,321.4 353.5,321.4 381.9,250.3 "/>
<linearGradient id="SVGID_1_" gradientUnits="userSpaceOnUse" x1="333.2717" y1="289.5282" x2="362.1594" y2="289.5282" gradientTransform="matrix(0.8061 0.5918 -0.5918 0.8061 180.2346 -133.7407)">
	<stop  offset="0" style="stop-color:#353B45"/>
	<stop  offset="8.374029e-002" style="stop-color:#303743"/>
	<stop  offset="0.3767" style="stop-color:#212B3D"/>
	<stop  offset="0.6785" style="stop-color:#172439"/>
	<stop  offset="1" style="stop-color:#142138"/>
</linearGradient>
<path class="st1" d="M306.5,306.2l-16.7,14.6L270.1,307c0,0,6.7-2.2,18.2,0.8l11.8-9.9L306.5,306.2z"/>
<path class="st2" d="M403.2,225.6c0,0-36.9,18.9-50,24.6c-13,5.7-57.4,50.1-57.4,50.1s5.7,11.6,8.5,9.5c25.1-17.9,48.1-33.9,63-39.5
	c29.4-11.1,37.6-13.5,45.1-22.2C412.4,248.1,408,237.6,403.2,225.6z"/>
<g>
	<linearGradient id="SVGID_2_" gradientUnits="userSpaceOnUse" x1="316.8101" y1="308.3804" x2="345.6981" y2="308.3804">
		<stop  offset="0" style="stop-color:#353B45"/>
		<stop  offset="8.374029e-002" style="stop-color:#303743"/>
		<stop  offset="0.3767" style="stop-color:#212B3D"/>
		<stop  offset="0.6785" style="stop-color:#172439"/>
		<stop  offset="1" style="stop-color:#142138"/>
	</linearGradient>
	<path class="st3" d="M345.7,298.8l-4.8,21.7l-24.1,0.5c0,0,4.1-5.8,15.1-10.1l3.6-14.9L345.7,298.8z"/>
	<path class="st4" d="M404.1,220.8c0,0-34.3,3.7-46.9,10.4c-12.5,6.7-22.5,68.6-22.5,68.6s9.7,5.3,10.9,2
		c9.7-26.4,20.5-47.2,20.5-47.2c12.3-2.3,40.9,11.7,61.6-8.7C427.7,245.9,409.9,232.3,404.1,220.8z"/>
</g>
<g>
	<path class="st5" d="M463.3,179c0,0-2.5,4.1-4,9.2l-14.1-1.3c0,0,7.3-11,6.7-17.7L463.3,179z"/>
	<g>
		<path id="XMLID_10_" class="st5" d="M460.2,156.2c-0.8-0.2-3.8-1-4.4-0.8c-0.8,0.3,0.1,1.5-0.5,2.1c-1,1.1-2.9,1.1-4.1,1.8
			c-1.5,0.8-2.7,1.9-3.3,3.1c-1.1,2,3,6.5,3.7,9.9c1.4,7.1,10.3,8.1,17.6,6c2.6-0.8,5-3.1,6.4-5.4c1.7-2.7,0.7-7.1-0.7-9.8
			c-0.8-1.6-2.5-3-3.9-4c-1.3-0.9-1.7-4.7-3.2-4.9C467.7,154.3,462,156.7,460.2,156.2z"/>
	</g>
	
		<linearGradient id="SVGID_3_" gradientUnits="userSpaceOnUse" x1="275.7678" y1="102.1881" x2="307.0824" y2="102.1881" gradientTransform="matrix(-0.6574 -0.7535 -0.7535 0.6574 738.2275 317.7967)">
		<stop  offset="0" style="stop-color:#353B45"/>
		<stop  offset="8.374029e-002" style="stop-color:#303743"/>
		<stop  offset="0.3767" style="stop-color:#212B3D"/>
		<stop  offset="0.6785" style="stop-color:#172439"/>
		<stop  offset="1" style="stop-color:#142138"/>
	</linearGradient>
	<path class="st6" d="M480.5,175.2c0,0-0.2-1.2,1.8-3.1c6.8-6.4-0.5-18.9-7.9-21c-3.8-1.1-6.2,0.1-7.5-3.7c0.1,0.3-1.5,1-1.7,1.1
		c-0.9,0.7-1.3,1.3-1.3,2.5c-0.1,5.5,4.8,10.5,8.4,14c1.7,1.5-2.4,0.5-4.1,0.8c-1.1,0.2-3.9,3.1-4.5,3.6c1.5,1.9,2.9,0.2,5,1.1
		c1.9,0.9,0.7,3.3-1.1,3.6c-2.8,0.4-3.9-1.4-3.9-1.4c-1.3,0.7-1.5,4.8-2.5,5.9c1.4,0.8,9.5,2.2,11.4,2.2
		C476.7,180.7,479.2,178.4,480.5,175.2z"/>
</g>
<path class="st7" d="M462.8,181.2c3,33-35.1,64.7-35.1,64.7s-24.8,0.9-23.6-25.2c0,0,1.9-4.7,17.3-18.7
	c10.3-9.3,17.5-23.2,24.7-22.9C465.9,179.9,462.8,181.2,462.8,181.2z"/>
<linearGradient id="SVGID_4_" gradientUnits="userSpaceOnUse" x1="370.5771" y1="218.2684" x2="466.3524" y2="218.2684">
	<stop  offset="0" style="stop-color:#353B45"/>
	<stop  offset="8.374029e-002" style="stop-color:#303743"/>
	<stop  offset="0.3767" style="stop-color:#212B3D"/>
	<stop  offset="0.6785" style="stop-color:#172439"/>
	<stop  offset="1" style="stop-color:#142138"/>
</linearGradient>
<path class="st8" d="M370.6,247.8c0,0,22.9,8.5,53.4-3c30.5-11.6,38.9-65.6,38.9-65.6l3.5,1.8c0,0-3.4,59.7-43.6,72.6
	c-30.7,9.9-52.2-1.9-52.2-1.9V247.8z"/>
<path class="st9" d="M459.1,214.2c0,0,3.7,12.7,3.9,19c0.2,6.3-2.5,27.8-2.5,27.8l5.8,0.7c0,0,5.2-25.6,5.3-33.9
	c0.1-8.3-4.7-21.9-4.7-21.9L459.1,214.2z"/>
<path class="st7" d="M458.8,214.8c4.2,18.5,2.5,43.2,2.5,43.2l6.3,0.4c6.9-14.5,6.3-46.6,2.6-60.1c-2.2-7.9-3.4-15.9-8.8-17.2
	c-3.4-0.8-10.3,1.7-11.2,5C448.2,193.4,456.7,205.7,458.8,214.8z"/>
<path class="st9" d="M457.9,264.2c-1.4,2.7-2,4.6-1.2,5.3c0.6,0.5,1.5-2.1,2.6-3c0.3,1.1,0.4,3.1-0.3,4.8c-0.8,1.9-0.7,3.5,0.7,3.7
	c1.5,0.1,3.8,0,4.3-1.2c0.5-1.2,1.7-6.2,2.4-7.9c0.6-1.7-0.2-3.6,0-4.6c0.2-1-4.3-2.6-4.3-2.6c-0.2,0.4-1.6,2.3-1.6,2.3
	s-1.2,1.4-1.6,1.7C458.5,262.9,457.9,264.2,457.9,264.2z"/>
<g>
	<line class="st10" x1="423.4" y1="4.8" x2="423.4" y2="48.8"/>
	<circle class="st11" cx="423.5" cy="65.1" r="7.7"/>
	<polygon class="st12" points="459.9,68.4 387,68.4 418.9,45.2 428,45.2 	"/>
</g>
<g>
	<line class="st10" x1="80.4" y1="4.8" x2="80.4" y2="48.8"/>
	<circle class="st11" cx="80.5" cy="65.1" r="7.7"/>
	<polygon class="st12" points="116.8,68.4 43.9,68.4 75.8,45.2 84.9,45.2 	"/>
</g>
<line class="st13" x1="1.5" y1="321.1" x2="499.8" y2="321.1"/>
<g>
	<g>
		<g>
			<path class="st14" d="M182.7,168c0,0,1.5-3.8,4.3-7.1c2.8-3.4,7-8.9,7-8.9s-2,4-4.8,8.5C186.4,164.9,182.7,168,182.7,168z"/>
			<path class="st14" d="M185.5,161.5c0,0,3.1-2.4,4.9-7.6c1.9-5.1,3.5-9.1,3.5-9.1s-4,5.7-5.7,9.7
				C186.6,158.5,185.5,161.5,185.5,161.5z"/>
			<path class="st14" d="M182.9,167.3c0,0,1.6-5.9,1.9-10.6c0.3-4.7,0.3-7.6,0.3-7.6s-2,8.5-2.7,12.1
				C181.8,164.8,182.9,167.3,182.9,167.3z"/>
			<path class="st14" d="M181.5,171.2c0,0,0.5-6.1-1.2-11.5c-1.7-5.4-1.8-8.9-1.8-8.9s-0.8,5.7,0.2,10.6
				C179.6,166.3,181.5,171.2,181.5,171.2z"/>
			<path class="st14" d="M182,169.8c0,0,4.3-3.7,6.5-4.5c2.2-0.9,5.2-3.4,5.2-3.4s-3.7,4.8-5.8,5.7C185.7,168.6,182,169.8,182,169.8
				z"/>
			<path class="st14" d="M180.5,175c0,0,0.4-3.3-1.5-8c-1.9-4.7-2.4-7-2.4-7s-0.1,6.4,1.2,8.8C179,171.1,180.5,175,180.5,175z"/>
			<path class="st14" d="M180.9,172.6c0,0,2.5-1.7,4.9-2s3-0.7,3-0.7s-1.2,2.2-4.1,2.6C181.7,172.9,180.9,172.6,180.9,172.6z"/>
			<path class="st14" d="M179.3,178.1c0.5-2.1,1.2-5.3,1.9-7.4c1.6-4.7,5.3-10.9,5.3-10.9c-2.3,5-3.9,7.9-5.1,12.2
				c-0.5,1.7-1.2,4.1-1.7,5.7C179.7,178.2,179.3,178.5,179.3,178.1z"/>
		</g>
		<g>
			<path class="st15" d="M180.4,169.7c0,0-0.2-4.3-1.9-8.7c-1.6-4.3-3.9-11.4-3.9-11.4s0.7,4.7,1.9,10.2
				C177.7,165.3,180.4,169.7,180.4,169.7z"/>
			<path class="st15" d="M179.7,162.1c0,0-2.3-3.5-2.4-9.3c-0.1-5.8-0.4-10.3-0.4-10.3s2,7.2,2.4,11.7
				C179.7,158.8,179.7,162.1,179.7,162.1z"/>
			<path class="st15" d="M180.4,168.9c0,0,0.4-6.5,1.7-11.3c1.3-4.8,2.4-7.8,2.4-7.8s-0.9,9.3-1.5,13.1
				C182.3,166.8,180.4,168.9,180.4,168.9z"/>
			<path class="st15" d="M180.5,173.3c0,0,1.6-6.3,5.2-11.1c3.6-4.9,4.9-8.3,4.9-8.3s-1.1,6-3.8,10.6
				C184,169,180.5,173.3,180.5,173.3z"/>
			<path class="st15" d="M180.4,171.8c0,0-3.1-5.2-4.9-6.8s-4.1-5.2-4.1-5.2s2.1,6.1,3.9,7.8C177.1,169.2,180.4,171.8,180.4,171.8z"
				/>
			<path class="st15" d="M180.1,177.5c0,0,0.7-3.5,4.3-7.5c3.6-4,4.8-6.2,4.8-6.2s-2.1,6.4-4.2,8.4
				C182.9,174.1,180.1,177.5,180.1,177.5z"/>
			<path class="st15" d="M180.6,174.9c0,0-1.9-2.5-4.2-3.7c-2.3-1.2-2.8-1.7-2.8-1.7s0.4,2.6,3.3,4
				C179.7,174.9,180.6,174.9,180.6,174.9z"/>
			<path class="st14" d="M180.3,181c0.2-2.3,0.6-5.7,0.6-8.2c0.1-5.3-1.6-12.7-1.6-12.7c0.5,5.9,1.2,9.3,0.9,14.1
				c-0.1,1.9-0.2,4.6-0.3,6.3C179.8,181,180.1,181.4,180.3,181z"/>
		</g>
		<g>
			<path class="st14" d="M177.1,170.6c0,0-1.5-3.8-4.3-7.1c-2.8-3.4-7-8.9-7-8.9s2,4,4.8,8.5C173.4,167.5,177.1,170.6,177.1,170.6z"
				/>
			<path class="st14" d="M174.2,164c0,0-3.1-2.4-4.9-7.6c-1.9-5.1-3.5-9.1-3.5-9.1s4,5.7,5.7,9.7C173.2,161.1,174.2,164,174.2,164z"
				/>
			<path class="st14" d="M176.9,169.9c0,0-1.6-5.9-1.9-10.6c-0.3-4.7-0.3-7.6-0.3-7.6s2,8.5,2.7,12.1
				C178,167.4,176.9,169.9,176.9,169.9z"/>
			<path class="st14" d="M178.3,173.8c0,0-0.5-6.1,1.2-11.5c1.7-5.4,1.8-8.9,1.8-8.9s0.8,5.7-0.2,10.6
				C180.1,168.9,178.3,173.8,178.3,173.8z"/>
			<path class="st14" d="M177.8,172.4c0,0-4.3-3.7-6.5-4.5c-2.2-0.9-5.2-3.4-5.2-3.4s3.7,4.8,5.8,5.7
				C174,171.2,177.8,172.4,177.8,172.4z"/>
			<path class="st14" d="M179.3,177.6c0,0-0.4-3.3,1.5-8c1.9-4.7,2.4-7,2.4-7s0.1,6.4-1.2,8.8C180.7,173.7,179.3,177.6,179.3,177.6z
				"/>
			<path class="st14" d="M178.9,175.2c0,0-2.5-1.7-4.9-2c-2.4-0.3-3-0.7-3-0.7s1.2,2.2,4.1,2.6C178.1,175.5,178.9,175.2,178.9,175.2
				z"/>
			<path class="st14" d="M180.5,180.7c-0.5-2.1-1.2-5.3-1.9-7.4c-1.6-4.7-5.3-10.9-5.3-10.9c2.3,5,3.9,7.9,5.1,12.2
				c0.5,1.7,1.2,4.1,1.7,5.7C180.1,180.8,180.4,181.1,180.5,180.7z"/>
		</g>
		<polygon class="st12" points="185.9,195.2 174.3,195.2 170.7,174.7 190,174.7 		"/>
	</g>
	<g>
		<g>
			<polygon class="st0" points="319.2,200.9 338.5,321.2 342.2,321.2 327,200.9 			"/>
			<polygon class="st0" points="186.6,200.9 161.5,321.4 156.6,321.4 176.2,201 			"/>
		</g>
		<rect x="147.2" y="193.9" class="st0" width="207" height="9.3"/>
		<rect x="137.2" y="193.9" class="st16" width="226.9" height="6.2"/>
	</g>
	<g>
		<g>
			<polygon class="st17" points="300.7,190.6 292.6,190.6 284.6,139.2 290.7,139.2 			"/>
			<polygon class="st12" points="298.3,190.6 266.9,190.6 258.9,139.2 290.3,139.2 			"/>
			<rect x="266.5" y="189.5" class="st12" width="34.2" height="3.8"/>
			<rect x="300.7" y="189.5" class="st17" width="43.1" height="3.8"/>
			<path class="st17" d="M281.1,167.4c0.9,3.9,0.3,8.2-1.4,9.5c-1.7,1.3-3.8-0.8-4.7-4.8c-0.9-3.9-0.3-8.2,1.4-9.5
				C278.1,161.4,280.2,163.5,281.1,167.4z"/>
		</g>
	</g>
	<g>
		<path class="st17" d="M232.2,193.1h-4.5c-1.8,0-3.4-1.3-3.7-3.2l-1.8-11.5h15.4l-1.8,11.5C235.6,191.8,234,193.1,232.2,193.1z"/>
		<g>
			<path class="st17" d="M236.3,190.7c-0.2,0-0.3,0-0.5,0l-0.2,0l-0.2-0.1c-0.1-0.1-2.7-2.1-2.7-5c0-3,2-5.4,4.4-5.4
				c1.5,0,2.8,0.6,3.6,1.5c0.6,0.7,1.2,2,0.8,4l0,0C241,188.8,239.1,190.7,236.3,190.7z M236.2,189.3c2.8,0.1,3.7-2.1,4-3.9l0,0
				c0.2-1.2,0-2.2-0.5-2.9c-0.5-0.7-1.5-1-2.5-1c-1.7,0-3,1.8-3,4C234.2,187.3,235.7,188.8,236.2,189.3z"/>
		</g>
	</g>
	<polygon class="st12" points="220.7,194.1 240.3,194.1 243.4,190.7 217.6,190.7 	"/>
</g>
<rect x="23.9" y="119.1" class="st18" width="93.4" height="202"/>
<rect x="34.6" y="128" class="st19" width="71.9" height="21.2"/>
<path class="st20" d="M79.2,141.1H62c-0.4,0-0.8-0.4-0.8-0.8v-3.5c0-0.4,0.4-0.8,0.8-0.8h17.2c0.4,0,0.8,0.4,0.8,0.8v3.5
	C80,140.8,79.6,141.1,79.2,141.1z"/>
<rect x="34.6" y="154.9" class="st19" width="71.9" height="21.2"/>
<path id="XMLID_2_" class="st20" d="M79.2,168.1H62c-0.4,0-0.8-0.4-0.8-0.8v-3.5c0-0.4,0.4-0.8,0.8-0.8h17.2c0.4,0,0.8,0.4,0.8,0.8
	v3.5C80,167.7,79.6,168.1,79.2,168.1z"/>
<rect x="34.6" y="181.9" class="st19" width="71.9" height="21.2"/>
<path class="st20" d="M79.2,195H62c-0.4,0-0.8-0.4-0.8-0.8v-3.5c0-0.4,0.4-0.8,0.8-0.8h17.2c0.4,0,0.8,0.4,0.8,0.8v3.5
	C80,194.7,79.6,195,79.2,195z"/>
<rect x="34.6" y="209.1" class="st19" width="71.9" height="103.8"/>
<path id="XMLID_1_" class="st20" d="M79.2,222.3H62c-0.4,0-0.8-0.4-0.8-0.8V218c0-0.4,0.4-0.8,0.8-0.8h17.2c0.4,0,0.8,0.4,0.8,0.8
	v3.5C80,221.9,79.6,222.3,79.2,222.3z"/>
</svg>
