<?xml version="1.0" encoding="utf-8"?>
<!-- Generator: Adobe Illustrator 19.0.0, SVG Export Plug-In . SVG Version: 6.00 Build 0)  -->
<svg version="1.1" id="Layer_1" xmlns="http://www.w3.org/2000/svg" xmlns:xlink="http://www.w3.org/1999/xlink" x="0px" y="0px"
	 viewBox="0 0 300 80" style="enable-background:new 0 0 300 80;" xml:space="preserve">
<style type="text/css">
	.st0{fill:#FFFFFF;}
	.st1{fill:#74C04F;}
	.st2{fill:none;stroke:#74C04F;stroke-width:5;stroke-miterlimit:10;}
	.st3{fill:#127039;}
</style>
<g id="XMLID_1_">
	<path id="XMLID_34_" class="st0" d="M25.2,61.6c-12.5,0-22.7-10.2-22.7-22.7s10.2-22.7,22.7-22.7s22.7,10.2,22.7,22.7
		S37.8,61.6,25.2,61.6z"/>
	<path id="XMLID_31_" class="st1" d="M25.2,18.7c11.2,0,20.2,9.1,20.2,20.2s-9.1,20.2-20.2,20.2S5,50,5,38.9S14.1,18.7,25.2,18.7
		 M25.2,13.7C11.3,13.7,0,24.9,0,38.9s11.3,25.2,25.2,25.2s25.2-11.3,25.2-25.2S39.2,13.7,25.2,13.7L25.2,13.7z"/>
</g>
<g id="XMLID_3_">
	<path id="XMLID_29_" class="st0" d="M150,61.6c-12.5,0-22.7-10.2-22.7-22.7s10.2-22.7,22.7-22.7s22.7,10.2,22.7,22.7
		S162.5,61.6,150,61.6z"/>
	<path id="XMLID_26_" class="st1" d="M150,18.7c11.2,0,20.2,9.1,20.2,20.2s-9.1,20.2-20.2,20.2c-11.2,0-20.2-9.1-20.2-20.2
		S138.8,18.7,150,18.7 M150,13.7c-13.9,0-25.2,11.3-25.2,25.2s11.3,25.2,25.2,25.2s25.2-11.3,25.2-25.2S163.9,13.7,150,13.7
		L150,13.7z"/>
</g>
<g id="XMLID_4_">
	<path id="XMLID_30_" class="st0" d="M274.8,61.6c-12.5,0-22.7-10.2-22.7-22.7s10.2-22.7,22.7-22.7s22.7,10.2,22.7,22.7
		S287.3,61.6,274.8,61.6z"/>
	<path id="XMLID_23_" class="st1" d="M274.8,18.7c11.2,0,20.2,9.1,20.2,20.2s-9.1,20.2-20.2,20.2s-20.2-9.1-20.2-20.2
		S263.6,18.7,274.8,18.7 M274.8,13.7c-13.9,0-25.2,11.3-25.2,25.2s11.3,25.2,25.2,25.2S300,52.8,300,38.9S288.7,13.7,274.8,13.7
		L274.8,13.7z"/>
</g>
<line id="XMLID_5_" class="st2" x1="47.8" y1="39.5" x2="127.3" y2="39.5"/>
<line id="XMLID_6_" class="st2" x1="173.3" y1="39.1" x2="252.3" y2="39.1"/>
<path id="XMLID_7_" class="st3" d="M25.2,22.8c-8.9,0-16.1,7.2-16.1,16.1S16.3,55,25.2,55s16.1-7.2,16.1-16.1S34.1,22.8,25.2,22.8z
	 M33.7,33.9l-8.6,12.7c-0.3,0.4-0.7,0.6-1.1,0.6s-0.8-0.2-1.1-0.5l-5.1-5.1c-0.3-0.3-0.3-0.9,0-1.3l1.3-1.3c0.3-0.3,0.9-0.3,1.2,0
	l3.3,3.3l7.2-10.6c0.3-0.4,0.8-0.5,1.2-0.2l1.5,1C33.9,32.9,34,33.5,33.7,33.9z"/>
<circle class="st3" cx="150" cy="38.9" r="16"/>
</svg>
