<?xml version="1.0" encoding="utf-8"?>
<!-- Generator: Adobe Illustrator 19.0.0, SVG Export Plug-In . SVG Version: 6.00 Build 0)  -->
<svg version="1.1" id="Layer_1" xmlns="http://www.w3.org/2000/svg" xmlns:xlink="http://www.w3.org/1999/xlink" x="0px" y="0px"
	 viewBox="0 0 20 20" style="enable-background:new 0 0 20 20;" xml:space="preserve">
<style type="text/css">
	.st0{fill:#ED1C24;}
</style>
<g id="XMLID_1_">
	<path id="XMLID_2_" class="st0" d="M9.2,5.7c0,0.1,0,0.3,0,0.5c0,0.2,0,0.4,0,0.7c0,0.6,0.1,1.2,0.1,1.7c0,1,0.1,1.9,0.1,2.9
		c0,0,0,0.1,0,0.1c0,0-0.1,0.5,0.5,0.5c0,0,0.6,0.1,0.6-0.6c0-1,0.1-2.1,0.1-3.1c0-0.5,0-1.1,0.1-1.6c0-0.3,0.1-0.6,0-1
		c0-0.5-0.5-0.7-0.9-0.7c-0.2,0-0.4,0.1-0.6,0.2C9.3,5.5,9.2,5.6,9.2,5.7z"/>
	<circle id="XMLID_3_" class="st0" cx="10" cy="13.8" r="1"/>
</g>
<path id="XMLID_9_" class="st0" d="M10,1.3c-4.8,0-8.7,3.9-8.7,8.7s3.9,8.7,8.7,8.7s8.7-3.9,8.7-8.7S14.8,1.3,10,1.3z M10,17.7
	c-4.2,0-7.7-3.4-7.7-7.7S5.8,2.3,10,2.3s7.7,3.4,7.7,7.7S14.2,17.7,10,17.7z"/>
</svg>
