<?xml version="1.0" encoding="utf-8"?>
<!-- Generator: Adobe Illustrator 19.0.0, SVG Export Plug-In . SVG Version: 6.00 Build 0)  -->
<svg version="1.1" id="Layer_1" xmlns="http://www.w3.org/2000/svg" xmlns:xlink="http://www.w3.org/1999/xlink" x="0px" y="0px"
	 viewBox="0 0 32 32" style="enable-background:new 0 0 32 32;" xml:space="preserve">
<style type="text/css">
	.st0{fill:#B62026;}
	.st1{fill:#056835;}
</style>
<g id="XMLID_1_">
	<rect id="Rectangle_150" x="0.3" y="14.2" class="st0" width="1.9" height="3.4"/>
	<path id="Path_443" class="st1" d="M0.3,13.5l11-7.4l2.9,2.1l-7.9,5.3L0.3,13.5z"/>
	<path id="Path_444" class="st0" d="M3.4,14.2h4.1V15H5.3v0.8h2.2v0.8H5.3v1h-2L3.4,14.2z"/>
	<rect id="Rectangle_151" x="8.7" y="14.2" class="st0" width="1.8" height="3.4"/>
	<g id="Group_234" transform="translate(19.541 14.476)">
		<path id="Path_445" class="st0" d="M-4.6,2.1c0,0.1-0.1,0.2-0.2,0.2h-0.9c-0.1,0-0.2-0.1-0.2-0.2V0.7c0-0.1,0.1-0.2,0.2-0.2h0.9
			c0.1,0,0.2,0.1,0.2,0.2c0,0,0,0,0,0v0.4h1.3V0.3c0-0.3-0.3-0.6-0.6-0.6c0,0,0,0,0,0h-3.3c-0.3,0-0.6,0.3-0.6,0.6c0,0,0,0,0,0v2.1
			c0,0.4,0.3,0.6,0.6,0.6c0,0,0,0,0,0h3.3c0.4,0,0.6-0.3,0.6-0.6c0,0,0,0,0,0V1.8h-1.3V2.1z"/>
	</g>
	<path id="Path_446" class="st1" d="M30.9,14.3c0,0-0.2-0.1-0.2-0.2c-1.8-1.2-12.4-8.4-12.4-8.4h-6.4c0,0,13.5,8.9,13.8,9.2
		c0.7,0.5,0.9,0.7,0.9,0.9c0,0.3-0.2,0.6-0.5,0.8L14.8,24l-8.5-5.7l-5.9,0l11.7,8h5.8c0,0,10.8-7.3,12.7-8.5
		c0.6-0.4,1.1-1.1,1.1-1.9C31.7,15.2,31.4,14.6,30.9,14.3z"/>
</g>
</svg>
