<?xml version="1.0" encoding="utf-8"?>
<!-- Generator: Adobe Illustrator 19.0.0, SVG Export Plug-In . SVG Version: 6.00 Build 0)  -->
<svg version="1.1" id="Layer_1" xmlns="http://www.w3.org/2000/svg" xmlns:xlink="http://www.w3.org/1999/xlink" x="0px" y="0px"
	 viewBox="-47 54.7 404.1 403.3" style="enable-background:new -47 54.7 404.1 403.3;" xml:space="preserve">
<style type="text/css">
	.st0{opacity:0.33;fill:#E2FFC5;enable-background:new    ;}
	.st1{fill:#E2FFC5;}
	.st2{fill:#AAD97B;}
	.st3{opacity:0.53;}
	.st4{fill:#E50021;}
	.st5{fill:#70B32F;}
	.st6{fill:#EDFBE0;}
	.st7{fill:#37366A;}
	.st8{font-family:'Montserrat-Regular';}
	.st9{font-size:6.027px;}
	.st10{fill:#A43F60;}
	.st11{fill:none;stroke:#37366A;stroke-width:0.5;stroke-miterlimit:10;}
	.st12{opacity:0.25;fill:#6756AD;enable-background:new    ;}
	.st13{fill:#F5BA9A;}
	.st14{fill:#EB4D50;}
	.st15{fill:url(#Path_26_1_);}
	.st16{fill:#B96944;}
	.st17{fill:none;stroke:#B96944;stroke-width:5.000000e-002;stroke-miterlimit:10;}
	.st18{fill:#594656;}
	.st19{fill:url(#Path_32_1_);}
	.st20{fill:url(#Path_12267_1_);}
	.st21{fill:#5D95BA;}
	.st22{fill:#8FCAEC;}
	.st23{fill:url(#Path_39_1_);}
	.st24{fill:#E1806D;}
	.st25{fill:#F49E78;}
	.st26{fill:#514540;}
	.st27{opacity:0.28;}
	.st28{fill:#F28279;}
	.st29{opacity:0.32;fill:url(#Path_12268_1_);enable-background:new    ;}
	.st30{opacity:0.31;fill:url(#Path_12269_1_);enable-background:new    ;}
	.st31{opacity:0.39;fill:url(#Path_12270_1_);enable-background:new    ;}
</style>
<g id="Group_2810" transform="translate(16464 -16702)">
	<g id="Group_52" transform="translate(-15962.971 17151.844)">
		<g id="Group_2">
			<path id="Path_1" class="st0" d="M-542.5-264.1l111.5-0.3l-28.4-5.8c0,0,1.2-31.9-12.8-25.5c-8.1,3.7-13.7,11.4-14.5,20.3
				c0,0-5.2-12.8-12.8-8.1c-7.5,4.6-11,12.8-11,12.8s-2.7-9.2-7.5-9.7c-4.1-0.4-12,8.3-16.1,13.2L-542.5-264.1z"/>
			<path id="Path_2" class="st0" d="M-235.9-212.3l92-0.3l-23.5-4.3c0,0,1-23.7-10.5-19s-12,15.1-12,15.1s-4.3-9.5-10.5-6
				c-3.9,2.2-7,5.5-9.1,9.5c0,0-2.2-6.8-6.2-7.2c-3.4-0.3-9.9,6.2-13.3,9.8L-235.9-212.3z"/>
			<path id="Path_3" class="st0" d="M-385.6-344.1l92-0.3l-23.5-4.8c0,0,1-26.3-10.5-21.1c-6.7,3-11.3,9.4-12,16.8
				c0,0-4.3-10.5-10.5-6.7c-3.9,2.6-7.1,6.3-9.1,10.5c0,0-2.2-7.6-6.2-8c-3.4-0.4-9.9,6.8-13.3,10.9L-385.6-344.1z"/>
		</g>
		<g id="Group_20">
			<path id="Path_4" class="st1" d="M-223.8-360.1l-7,2.4l-3-8.7c-5.6-16.1-23.2-24.7-39.4-19.1c-16.1,5.6-24.7,23.2-19.1,39.4
				l3,8.7l-7,2.4c-5.5,1.9-8.4,7.9-6.5,13.4l19.7,56.9c1.9,5.5,7.9,8.5,13.4,6.6l72.4-25.1c5.5-1.9,8.5-8,6.6-13.5c0,0,0,0,0,0
				l-19.7-56.9C-212.2-359.1-218.3-362-223.8-360.1z M-279-350.7c-3.1-8.8,1.6-18.5,10.4-21.6c8.8-3.1,18.5,1.6,21.6,10.4l3,8.7
				l-32,11.1L-279-350.7z M-237-298.8l5,14.5c0.2,0.6-0.1,1.3-0.8,1.5c0,0,0,0,0,0l-7,2.4c-0.6,0.2-1.2-0.1-1.4-0.7l-5-14.5
				c-7.5-0.2-13.3-6.5-13.1-13.9s6.5-13.3,13.9-13.1c7.5,0.2,13.3,6.5,13.1,13.9C-232.4-304.9-234.1-301.3-237-298.8L-237-298.8z"/>
			<path id="Path_5" class="st2" d="M-271.7-79.2c-1.7-3.4,2.3-6.9,6-7.6s7.9-0.2,10.9-2.5c3.9-3.1,3.7-9.9,8.1-12.4
				c3.5-2,8.2-0.1,11.9-1.7c4.6-2,5.9-8.4,10.4-10.6c3.6-1.7,8.3,0.2,10.2,3.8s1,8.1-1.6,11.2c-2,2.4-5,4.1-6.2,7
				c-1.9,4.5,1.1,9.9-0.7,14.5c-3.3,8.4-18.9,5.9-21.6,14.5c-0.6,1.9-0.3,4-0.5,6c-0.5,6-4.7,11.2-9.9,14.2s-11.3,4-17.3,4.4
				c-2.4,0.2-5,0.2-7.2-0.9c-2-1.2-3.6-2.9-4.6-5C-290.9-57.3-293.8-74.3-271.7-79.2"/>
			<path id="Path_6" class="st1" d="M-386.8-86.1c3.9-2.6,1.7-8.8-1.9-11.8s-8.4-4.9-10.1-9.2c-2.3-5.7,2-12.9-1.2-18.2
				c-2.5-4.3-8.7-5-11.7-8.9c-3.8-4.9-1.3-12.5-4.8-17.6c-2.8-4-9.1-4.8-13.2-2.1s-6,8.1-5.1,12.9c0.7,3.8,2.8,7.4,2.4,11.2
				c-0.6,6-7.2,10-8,15.9c-1.5,11,16.7,17.7,14.4,28.6c-0.5,2.4-2,4.5-3.1,6.7c-3.1,6.7-1.7,14.8,2,21.1s9.7,11.1,15.8,15.1
				c2.5,1.7,5.2,3.3,8.2,3.4c2.8,0.1,5.5-1.1,7.9-2.6C-379.5-51.2-366.1-67.6-386.8-86.1"/>
			<g id="Group_4" class="st3">
				<g id="Group_3">
					<path id="Path_7" class="st4" d="M-285.6-72.3c5.4-2.3,10.3-6.6,14.3-10.8c10.9-11.2,17.6-25.9,21.2-41
						c3.2-13.7,3.9-27.8,3.3-41.7c-0.1-1.2-1.9-1.2-1.8,0c1.5,31.4-4.7,69.9-32.8,89c-1.6,1.1-3.2,2.1-5,2.9
						C-287.6-73.4-286.6-71.9-285.6-72.3L-285.6-72.3z"/>
				</g>
				<path id="Path_8" class="st4" d="M-249.8-129.4c0,0,1.8-10.2,15.3-11.8C-234.6-141.1-239.5-129.1-249.8-129.4z"/>
				<path id="Path_9" class="st4" d="M-254.3-114.3c0,0,4.1-9.5,17.6-7.9C-236.7-122.2-244.3-111.7-254.3-114.3z"/>
				<path id="Path_10" class="st4" d="M-260-101.1c0,0,6.1-8.3,18.9-3.8C-241.1-104.8-250.8-96.2-260-101.1z"/>
				<path id="Path_11" class="st4" d="M-247.8-145.2c0,0,1.7-10,15-11.6C-232.8-156.7-237.6-144.9-247.8-145.2z"/>
				<path id="Path_12" class="st4" d="M-247.6-162.5c0,0-7.5-6.8-1.8-18.9C-249.4-181.4-242-171-247.6-162.5z"/>
				<path id="Path_13" class="st4" d="M-247.5-152.2c0,0-10-1.8-11.4-15.1C-259-167.3-247.2-162.4-247.5-152.2z"/>
				<path id="Path_14" class="st4" d="M-248.5-137c0,0-10-1.8-11.4-15.1C-260-152.1-248.2-147.1-248.5-137z"/>
				<path id="Path_15" class="st4" d="M-251.1-122.7c0,0-9.8-2.5-10.4-15.9C-261.5-138.6-250.1-132.8-251.1-122.7z"/>
				<path id="Path_16" class="st4" d="M-255.7-108.5c0,0-9.8-2.5-10.4-15.9C-266-124.3-254.6-118.6-255.7-108.5z"/>
			</g>
			<g id="Group_19">
				<path id="Rectangle_7" class="st5" d="M-385-317.8h101.1c11.7,0,21.1,9.5,21.1,21.1v238.9c0,11.7-9.5,21.1-21.1,21.1H-385
					c-11.7,0-21.1-9.5-21.1-21.1v-238.9C-406.1-308.3-396.6-317.8-385-317.8z"/>
				<path id="Path_452" class="st6" d="M-384.7-309.5h100.6c8.2,0,14.8,6.6,14.8,14.8c0,0,0,0,0,0v233.4c0,8.2-6.6,14.8-14.8,14.8
					h-100.6c-8.2,0-14.8-6.6-14.8-14.8v-233.4C-399.5-302.9-392.9-309.5-384.7-309.5z"/>
				<path id="Path_17" class="st5" d="M-295.4-309.5h-8.5c-2.6,0-4.7,2.1-4.7,4.7l0,0v3.4c0,2.6-2.1,4.7-4.7,4.7l0,0h-37.8
					c-2.6,0-4.7-2.1-4.7-4.7v-3.4c0-2.6-2.1-4.7-4.7-4.7h-24v-2.4h89.1L-295.4-309.5z"/>
				<g id="Group_18">
					<g id="Group_17">
						<g id="Group_5">
							<path id="Path_18" class="st7" d="M-330.8-269c0.9-0.5,1.2-1.5,0.7-2.4c-0.5-0.9-1.5-1.2-2.4-0.7c-0.9,0.5-1.2,1.5-0.7,2.4
								c0.2,0.3,0.4,0.6,0.7,0.7c-1.1,0.4-1.9,1.4-1.9,2.6v1.4h5.5v-1.4C-328.9-267.5-329.6-268.6-330.8-269z"/>
							<text transform="matrix(1 0 0 1 -354.931 -255.279)" class="st7 st8 st9">Create Account</text>
						</g>
						<g id="Group_6">
							<path id="Rectangle_9" class="st10" d="M-361.2-97.2h52.2c0.5,0,1,0.4,1,1V-86c0,0.5-0.4,1-1,1h-52.2c-0.5,0-1-0.4-1-1v-10.2
								C-362.2-96.8-361.7-97.2-361.2-97.2z"/>
						</g>
						<g id="Group_7">
							<path id="Rectangle_10" class="st11" d="M-378.4-234.5h93.6c1.5,0,2.8,1.2,2.8,2.8v9.4c0,1.5-1.2,2.8-2.8,2.8h-93.6
								c-1.5,0-2.8-1.2-2.8-2.8v-9.4C-381.1-233.2-379.9-234.5-378.4-234.5z"/>
						</g>
						<g id="Group_10">
							<g id="Group_9">
								<g id="Group_8">
									<path id="Rectangle_11" class="st11" d="M-378.4-201.1h93.6c1.5,0,2.8,1.2,2.8,2.8v9.4c0,1.5-1.2,2.8-2.8,2.8h-93.6
										c-1.5,0-2.8-1.2-2.8-2.8v-9.4C-381.1-199.9-379.9-201.1-378.4-201.1z"/>
								</g>
							</g>
						</g>
						<g id="Group_13">
							<g id="Group_12">
								<g id="Group_11">
									<path id="Rectangle_12" class="st11" d="M-378.4-166h93.6c1.5,0,2.8,1.2,2.8,2.8v9.4c0,1.5-1.2,2.8-2.8,2.8h-93.6
										c-1.5,0-2.8-1.2-2.8-2.8v-9.4C-381.1-164.8-379.9-166-378.4-166z"/>
								</g>
							</g>
						</g>
						<g id="Group_16">
							<g id="Group_15">
								<g id="Group_14">
									<path id="Rectangle_13" class="st11" d="M-378.4-130.8h93.6c1.5,0,2.8,1.2,2.8,2.8v9.4c0,1.5-1.2,2.8-2.8,2.8h-93.6
										c-1.5,0-2.8-1.2-2.8-2.8v-9.4C-381.1-129.5-379.9-130.8-378.4-130.8z"/>
								</g>
							</g>
						</g>
					</g>
				</g>
			</g>
		</g>
		<g id="Group_27">
			<path id="Path_19" class="st12" d="M-284.8,6c0-1.2-28.5-2.1-63.7-2.1s-63.7,0.9-63.7,2.1s28.5,2.1,63.7,2.1S-284.8,7.2-284.8,6z
				"/>
			<g id="Group_26">
				<path id="Path_20" class="st13" d="M-341.8-128.8c0,0,6.3,9.8,7.8,5.5s2.3-6.8,2.3-6.8s-1.8-2.9-2.8-2c-1,0.9-2.3-0.8-2.3-0.8
					L-341.8-128.8z"/>
				<g id="Group_21">
					<path id="Path_21" class="st13" d="M-310.5-179.4l2.6-15.2c1.7-0.6,3.5-1.9,2.9-3.9c-0.3-0.9-1.1-1.7-2.1-1.9
						c-0.4-0.1-2.2-0.7-2.3,0c0,0,1-5.5,1-5.5l-17.8-8.6l-1.6,11c-0.6-0.3-1.3-0.5-2-0.5c-0.9,0.2-1.7,0.8-2.1,1.7
						c-0.7,1.8,0.3,3.9,2.1,4.5c0.3,0.1,0.6,0.2,1,0.2c0,0,0.3,4.9,1.4,6.6s6.4,2.9,6.4,2.9l-0.6,6.6L-310.5-179.4z"/>
				</g>
				<g id="Group_22">
					<path id="Path_22" class="st14" d="M-304.4-178.1c-8.1-2.3-19.4-4.2-19.4-4.2l-7.5,53.4l31.6-1L-304.4-178.1z"/>
				</g>
				<g id="Group_23">
					<path id="Path_23" class="st14" d="M-304.4-178.1c10.4,2.8,21,4.8,31.7,6c-2.4-11-3.7-19.3-6.9-28.6c3-0.8,8.9-2.3,11.9-3
						c0,0,10,34.7,6.9,39.3c-5.1,7.9-30.8,2.7-30.8,2.7l-12.1-2.2L-304.4-178.1z"/>
				</g>
				<g id="Group_24">
					<path id="Path_24" class="st14" d="M-358.6-166.4c0,0,33.9-16.6,35.5-16s2.9,8.3,2.9,8.3c-10.1,6.2-20.6,11.7-31.3,16.7
						l17.3,23.6l-8.6,6.2c0,0-23.8-26.7-22.9-32.2C-365-164.1-358.6-166.4-358.6-166.4z"/>
				</g>
				<path id="Path_25" class="st13" d="M-268.2-203.7c0,0-1.4-9.8-1.6-10.1s-0.2-2-2.7-1.6c0,0-0.2-3.1-1.6-3.2
					c-1,0-2.1,0.1-3.1,0.3c0,0-1.6-8-2.7-9.4c-1.2-1.5-2.8,2.5-0.3,12.2c0,0,1.4,6.6,1,6.9c-1.1,0.7-2.7,0.5-4.8-3.1
					c-2.3-3.9-5.1-2.6-3.7,0.4s3.4,6.9,4.7,8s4,0.9,4,0.9l0.4,1.3L-268.2-203.7z"/>
				<g id="Group_25">
					
						<linearGradient id="Path_26_1_" gradientUnits="userSpaceOnUse" x1="-594.0132" y1="52.5034" x2="-594.0132" y2="51.5034" gradientTransform="matrix(91.08 0 0 -137.775 53757.4805 7100.5962)">
						<stop  offset="0" style="stop-color:#00672E"/>
						<stop  offset="1" style="stop-color:#2B8B30"/>
					</linearGradient>
					<path id="Path_26" class="st15" d="M-299.7-129.9c-3.8,57.8-16.7,129.2-16.7,129.2l12.7,5.4h-27l17.7-126.2h-6.1L-363.8,4.7
						h-26.9l15.3-5.6l44.7-132.2L-299.7-129.9z"/>
				</g>
				<path id="Path_27" class="st16" d="M-306.2-200c1.5-3,3.3-10.3-1.3-12.4c-2.3-1.1-4.5-2.3-6.7-3.8c-2.8-1.9-6.2-2.5-9.5-1.7
					c-0.5,0.1-1,0.3-1.5,0.6c-3.2,1.6-5.4,10.1-5.4,10.1l3.1,0.8c0,0,3.5,15.6,9.3,18.8l5.8,1.2l3.4,0.8L-306.2-200z"/>
				<path id="Path_28" class="st17" d="M-310.7-213.5c0-0.9,0-1.9-0.1-2.8"/>
				<path id="Path_29" class="st17" d="M-310.5-213.6c0.2-0.1,0.3-0.2,0.3-0.4c0.3-0.7,0.7-1.4,1.2-2"/>
			</g>
		</g>
		<g id="Group_51">
			<path id="Path_30" class="st12" d="M-420.6-9.3c0-1.2-28.5-2.1-63.7-2.1S-548-10.5-548-9.3s28.5,2.1,63.7,2.1
				S-420.6-8.1-420.6-9.3z"/>
			<g id="Group_50">
				<path id="Path_31" class="st18" d="M-462.4-230.6c-1.3-0.2-2.6-0.4-3.8-0.5c-2.3-0.2-4.4,1.3-6.1,2.8c-1.7,1.6-3,3.4-4.1,5.5
					c-1.1,2-2.2,4.4-1.5,6.7c0.2,0.5,0.4,1.1,0.4,1.7c0,1.9-2.6,2.6-3.4,4.2c-1,2.1,1,4.9-0.3,6.7c-0.7,0.9-2,1.2-2.6,2.1
					c-0.4,0.8-0.6,1.7-0.4,2.6c-0.1,0.3,0.1,0.6,0.4,0.6c0.1,0,0.1,0,0.2,0c7.3,0.7,14.5-0.9,21.8-0.2c2.2,0.4,4.4,0,6.3-1.1
					c6.3-2.9,12.6-3.6,18.8-6.8c0.3-0.1,0.5-0.3,0.7-0.5c0.1-0.2,0.1-0.4,0.1-0.7c-0.2-1.7-1.3-3.1-2.9-3.6
					c-1.6-0.5-3.5-0.1-4.9-1.1c-0.9-0.8-1.4-2-1.4-3.2c-0.3-2.5,0-5.3-1.8-7c-1.4-1.3-3.6-1.5-5-2.8c-0.7-0.8-1.3-1.8-1.9-2.7
					C-455.8-230.4-459-232-462.4-230.6"/>
				<g id="Group_28">
					
						<linearGradient id="Path_32_1_" gradientUnits="userSpaceOnUse" x1="-594.0009" y1="52.5015" x2="-594.0009" y2="51.5015" gradientTransform="matrix(88.9503 0 0 -136.9199 52349.7695 7040.3267)">
						<stop  offset="0" style="stop-color:#70B32F"/>
						<stop  offset="1" style="stop-color:#2B8B30"/>
					</linearGradient>
					<path id="Path_32" class="st19" d="M-474.6-146.2l-40.7,128.8l-16,6.2h23.8l45.9-121.3c0.3-0.8,1-1.3,1.9-1.3l0,0
						c1.1,0,2,0.9,2,2c0,0.1,0,0.1,0,0.2l-12.1,120.4h24.1l-16.1-5.3c0,0,15-70,18.3-91.9s-1.5-37.4-1.5-37.4
						S-460.6-150.8-474.6-146.2z"/>
				</g>
				<g id="Group_29">
					<path id="Path_33" class="st14" d="M-474.1-192.6c3.7-3.9,18.6-4.3,23.9-2.1c5.4,2.2,15.2,30.7,15.2,30.7l-9.8,3.9l-6.1-23.8
						l-19.1-2.6L-474.1-192.6z"/>
				</g>
				<g id="Group_30">
					<path id="Path_34" class="st14" d="M-449-180.5c0.9-2.2,1.6-4.6,2-7c0.4-3-3.8-6-3.8-6l-22.4,5.8l1.4,13.4l-3.3,27l28.5,1.1
						l-2.9-34.1"/>
				</g>
				
					<linearGradient id="Path_12267_1_" gradientUnits="userSpaceOnUse" x1="-593.8653" y1="52.5729" x2="-593.8653" y2="51.5729" gradientTransform="matrix(70.785 0 0 -178.416 41557.4102 9183.8135)">
					<stop  offset="0" style="stop-color:#70B32F"/>
					<stop  offset="1" style="stop-color:#2B8B30"/>
				</linearGradient>
				<path id="Path_12267" class="st20" d="M-448.9-196l-22.9,19.4l-5,38.4l-38.1,120.6h53l16-127.7l-3.1-31.3l4.9-9.2L-448.9-196z"
					/>
				<g id="Group_31">
					<path id="Path_35" class="st21" d="M-471.5-179.7c-0.1,0-0.2,0-0.3-0.1c-0.2-0.2-0.2-0.4-0.1-0.6c0,0,0,0,0,0l1.6-2.1
						c0.1-0.2,0.4-0.3,0.6-0.1s0.3,0.4,0.1,0.6c0,0,0,0,0,0l-1.6,2.1C-471.2-179.8-471.4-179.7-471.5-179.7z"/>
				</g>
				<g id="Group_32">
					<path id="Path_36" class="st22" d="M-485.8-142.7l5.1-3"/>
				</g>
				<g id="Group_33">
					<path id="Path_37" class="st13" d="M-463.5-195.8c-0.3-3,1.2-6-3.6-7.9c-6.6-2.7-8.1-25.5,3.9-25.6c12-0.1,11.4,15,11.3,19.5
						s-4,5.6-5,7.2c-1,1.6-0.1,6.7-0.1,6.7H-463.5z"/>
				</g>
				<g id="Group_34">
					<path id="Path_38" class="st13" d="M-470.3-213.1c-0.2,1.3-1.4,2.1-2.6,2c-1.3-0.2-2.1-1.4-2-2.6c0.2-1.1,1.1-2,2.3-2
						C-471.3-215.6-470.2-214.5-470.3-213.1z"/>
				</g>
				<g id="Group_35">
					<ellipse id="Ellipse_1" class="st13" cx="-451.1" cy="-215.1" rx="2.3" ry="2.7"/>
				</g>
				
					<linearGradient id="Path_39_1_" gradientUnits="userSpaceOnUse" x1="-594.9995" y1="51.2988" x2="-594.0395" y2="51.7888" gradientTransform="matrix(142.6366 0 0 -73.5269 84281.7266 3665.0872)">
					<stop  offset="0" style="stop-color:#70B32F"/>
					<stop  offset="1" style="stop-color:#2B8B30"/>
				</linearGradient>
				<path id="Path_39" class="st23" d="M-401.6-166.7l-3.6-9l-100.4,39.4c-7-9.5-20.4-11.6-29.9-4.6c-9.5,7-11.6,20.4-4.6,29.9
					c7,9.5,20.4,11.6,29.9,4.6c6.2-4.6,9.5-12.2,8.6-19.9l76.5-31l4.2,9.2l9.3-4.3l-3.3-7.3l3-1.6l3.6,7.1l6.7-3.6l-3.7-7.5
					L-401.6-166.7z M-522.6-109.8c-7.7,0-13.9-6.2-13.9-13.9s6.2-13.9,13.9-13.9s13.9,6.2,13.9,13.9
					C-508.8-116-515-109.8-522.6-109.8L-522.6-109.8z"/>
				<g id="Group_36">
					<path id="Path_40" class="st14" d="M-474.1-192.6c0,0-25.3,22.5-25.5,26.7s14.9,26.2,14.9,26.2l7.5-4.8l-10.5-19.7l17.1-16.4
						c0,0,0.6,3.8,1.9,4.8l0.8-15L-474.1-192.6z"/>
				</g>
				<path id="Path_41" class="st18" d="M-454.3-224c-3.3,0.2-17.9,1.7-17.9,1.7s2.1-8.8,8.9-9.1C-454.3-231.9-454.3-224-454.3-224z"
					/>
				<path id="Path_42" class="st18" d="M-472.1-214.8c0,0,11.8-1.1,13.9-6.7c0,0,3.9,5,6.2,4.8c0,0,0.4-6.6-1.1-7.5
					c-1.4-0.9-19.6,0.9-19.6,0.9C-472.9-220.4-472.7-217.6-472.1-214.8z"/>
				<path id="Path_43" class="st13" d="M-484.3-139.9c0,0,3.2,6.8,3.4,7s0.6,1.4,2.3,0.6c0,0,0.8,2.2,1.9,1.9
					c0.8-0.2,1.5-0.5,2.2-0.9c0,0,1.3,1.7,2.3,0.8c1.1-1.1,0.1-2.3-0.7-3.5c0,0-2.5-4.5-2.3-4.8c0.7-0.7,1.8-1,4.2,1.2
					c2.5,2.3,4.3,0.7,2.6-1.2c-1.7-1.9-4-4.3-5.2-4.8c-1-0.2-2.1-0.1-3.1,0.2l-0.6-0.8L-484.3-139.9z"/>
				<path id="Path_44" class="st24" d="M-432.6-154.2c0,0-1.8,5.2-5,6c-3.2,0.9-20.9,4.5-20.9,4.5v-7L-432.6-154.2z"/>
				<path id="Path_45" class="st13" d="M-458.5-149.9h-1.4c-0.1-0.4-0.3-0.9-0.5-1.3c-0.6-0.9-8-1.8-7.9-0.9c0.1,1,1.4,1.2,4,1.7
					c0,0-9.8,2.4-8.9,3.2c0.9,0.8,7-1,7-1s-6.6,2.2-6.2,3.6c0.3,0.8,7-1.1,7-1.1s-6.8,2.5-5.6,3.3c1.2,0.8,8.8-1,9.5-1.3
					s1-1.7,1-1.7l1.8-0.3L-458.5-149.9z"/>
				<g id="Group_37">
					<path id="Path_46" class="st18" d="M-464-234.1c0.1,1.2,0.5,2.3,1,3.4c0.3,0.4,0.9,0,0.6-0.4c-0.5-1-0.8-2.1-0.9-3.2
						C-463.4-234.8-464.1-234.6-464-234.1L-464-234.1z"/>
				</g>
				<g id="Group_38">
					<path id="Path_47" class="st18" d="M-462.4-230.7c0.4-0.7,0.8-1.3,1.2-1.9c0.3-0.4-0.4-0.8-0.6-0.4c-0.4,0.6-0.8,1.3-1.2,1.9
						c-0.1,0.2,0,0.4,0.1,0.5C-462.8-230.5-462.5-230.5-462.4-230.7L-462.4-230.7z"/>
				</g>
				<g id="Group_39">
					<path id="Path_48" class="st25" d="M-461-215.3c0,0.8,0,1.7,0.1,2.5c0.1,0.4,0,1.2,0.3,1.5c0.2,0.2,0.5,0.2,0.7,0.2
						c0.8,0.1,1.6,0.2,2.4,0.3l-0.1-0.3c-0.7,0.6-1.4,1.1-2.3,1.5c-0.2,0.1,0,0.4,0.2,0.3c0.9-0.4,1.7-0.9,2.4-1.6
						c0.1-0.1,0.1-0.2,0-0.3c0,0-0.1,0-0.1-0.1c-0.8-0.1-2.6,0-3-0.9c-0.3-1.1-0.4-2.2-0.2-3.3C-460.7-215.5-461-215.5-461-215.3
						L-461-215.3z"/>
				</g>
				<g id="Group_40">
					<path id="Path_49" class="st26" d="M-457.3-212.8c0.1-0.8-0.4-2.8,0.6-3.2c0.9-0.4,1.5,0.4,1.7,1.2c0.1,0.5,0.2,1,0.3,1.5
						c0,0.2,0.4,0.1,0.4-0.1c-0.2-1.2-0.3-3.3-2.1-3c-1.7,0.2-1.1,2.6-1.2,3.6C-457.7-212.5-457.3-212.5-457.3-212.8L-457.3-212.8z"
						/>
				</g>
				<g id="Group_41">
					<path id="Path_50" class="st26" d="M-466.7-212.3c0.1-0.8-0.4-2.8,0.6-3.2c0.9-0.4,1.5,0.4,1.7,1.2c0.1,0.5,0.2,1,0.3,1.5
						c0,0.2,0.4,0.1,0.4-0.1c-0.2-1.2-0.3-3.3-2.1-3c-1.7,0.2-1.1,2.6-1.2,3.6C-467.1-212-466.7-212-466.7-212.3L-466.7-212.3z"/>
				</g>
				<g id="Group_42">
					<path id="Path_51" class="st25" d="M-464.2-210.1c0.4,3,5.6,3.7,7.5,1.8c0.2-0.2-0.1-0.4-0.3-0.3c-1.6,1.5-6.5,1.2-6.8-1.6
						C-463.9-210.4-464.3-210.4-464.2-210.1L-464.2-210.1z"/>
				</g>
				<g id="Group_43">
					<path id="Path_52" class="st25" d="M-464.3-209.6c0.1-0.3,0.4-0.5,0.8-0.5c0.2,0,0.3-0.3,0.1-0.4c-0.5-0.1-1.1,0.2-1.2,0.7
						C-464.7-209.5-464.4-209.4-464.3-209.6L-464.3-209.6z"/>
				</g>
				<g id="Group_44" class="st27">
					<path id="Path_53" class="st28" d="M-464.8-211.4c0.2,0.4-0.6,1.1-1.7,1.3c-0.5,0.1-0.9,0.1-1.4,0c-0.3-0.1-0.5-0.2-0.6-0.4
						c-0.1-0.1,0-0.2,0-0.4c0.1-0.2,0.2-0.3,0.4-0.4c0.4-0.2,0.8-0.4,1.3-0.5C-465.8-211.8-464.9-211.8-464.8-211.4z"/>
				</g>
				<g id="Group_45" class="st27">
					<path id="Path_54" class="st28" d="M-452.7-212.2c0.2,0.4-0.6,1.1-1.7,1.3c-0.5,0.1-0.9,0.1-1.4,0c-0.3-0.1-0.5-0.2-0.6-0.4
						c-0.1-0.1,0-0.2,0-0.4c0.1-0.2,0.2-0.3,0.4-0.4c0.4-0.2,0.8-0.4,1.3-0.5C-453.8-212.6-452.9-212.6-452.7-212.2z"/>
				</g>
				<g id="Group_46">
					<path id="Path_55" class="st25" d="M-472.8-214.5c-0.6,0.1-1.1,0.6-1.1,1.3c0,0,0,0.1,0,0.1c0,0.7,0.6,1.2,1.2,1.3
						c0.2,0,0.2-0.4,0-0.4c-1-0.1-1.3-1.9-0.2-1.9C-472.6-214.1-472.6-214.5-472.8-214.5L-472.8-214.5z"/>
				</g>
				<g id="Group_47">
					<path id="Path_56" class="st25" d="M-473.8-213.5c0.3,0.4,0.9,0.7,1.4,0.6c0.2,0,0.2-0.4,0-0.4c-0.5,0-0.9-0.2-1.2-0.5
						C-473.7-213.9-473.9-213.7-473.8-213.5L-473.8-213.5z"/>
				</g>
				<g id="Group_48">
					<path id="Path_57" class="st25" d="M-451.3-213.8c0.8,0.2,1.2-0.5,1.3-1.2c0.1-0.7-0.3-1.4-1-1.5c0,0-0.1,0-0.1,0
						c-0.2,0-0.2,0.3,0,0.4c0.5,0.1,0.9,0.5,0.8,1c0,0.5-0.3,1.2-0.9,1C-451.5-214.2-451.6-213.9-451.3-213.8L-451.3-213.8z"/>
				</g>
				<g id="Group_49">
					<path id="Path_58" class="st25" d="M-451.1-214.9c0.3-0.3,0.6-0.7,0.6-1.2c0-0.2-0.3-0.3-0.4-0.1c0,0.4-0.2,0.8-0.5,1
						C-451.5-215-451.3-214.8-451.1-214.9L-451.1-214.9z"/>
				</g>
				
					<linearGradient id="Path_12268_1_" gradientUnits="userSpaceOnUse" x1="-593.2079" y1="52.4803" x2="-593.2079" y2="51.4803" gradientTransform="matrix(35.569 0 0 -128.069 20637.3574 6575.415)">
					<stop  offset="0" style="stop-color:#70B32F"/>
					<stop  offset="1" style="stop-color:#E2FFC5"/>
				</linearGradient>
				<path id="Path_12268" class="st29" d="M-446.6-145.7l-33.6,128.1h16.1l19.4-125.9L-446.6-145.7z"/>
				
					<linearGradient id="Path_12269_1_" gradientUnits="userSpaceOnUse" x1="-593.657" y1="52.4647" x2="-593.657" y2="51.4647" gradientTransform="matrix(53.881 0 0 -122.264 31512.0547 6274.8965)">
					<stop  offset="0" style="stop-color:#70B32F"/>
					<stop  offset="1" style="stop-color:#E2FFC5"/>
				</linearGradient>
				<path id="Path_12269" class="st30" d="M-447.8-139.7L-487-17.4h-14.7L-447.8-139.7z"/>
				
					<linearGradient id="Path_12270_1_" gradientUnits="userSpaceOnUse" x1="-592.768" y1="51.5628" x2="-592.768" y2="50.5628" gradientTransform="matrix(26.685 0 0 -33.722 15358.0703 1542.7408)">
					<stop  offset="0" style="stop-color:#70B32F"/>
					<stop  offset="1" style="stop-color:#E2FFC5"/>
				</linearGradient>
				<path id="Path_12270" class="st31" d="M-446.6-191.8l-26.7,29.5l1.7-12.5v-1.6l1.8-1.8l1.3,2.6v-3.6l20.1-16.7L-446.6-191.8z"/>
			</g>
		</g>
	</g>
</g>
</svg>
