<svg id="Group-2660" xmlns="http://www.w3.org/2000/svg" xmlns:xlink="http://www.w3.org/1999/xlink" width="304.403" height="105.293" viewBox="0 0 304.403 105.293">
  <defs>
    <linearGradient id="linear-gradient" x1="0.5" x2="0.5" y2="1" gradientUnits="objectBoundingBox">
      <stop offset="0" stop-color="#652c90"/>
      <stop offset="1" stop-color="#2d3091"/>
    </linearGradient>
    <linearGradient id="linear-gradient-5" x1="0.5" x2="0.5" y2="1" gradientUnits="objectBoundingBox">
      <stop offset="0" stop-color="#551684"/>
      <stop offset="1" stop-color="#0d1074"/>
    </linearGradient>
  </defs>
  <g id="Group_2624" data-name="Group 2624">
    <path id="Path_3037" data-name="Path 3037" d="M152.664,166.484H98.344V80.525h31.647V71.542H89.366V175.47h72.281V143.82h15.825v-8.983H152.664Z" transform="translate(-89.366 -71.542)" fill="#262261"/>
    <path id="Path_3038" data-name="Path 3038" d="M149.631,170.927H157.2V131.708l-7.568.018Z" transform="translate(-117.233 -99.362)" fill="#1b75bb"/>
    <path id="Path_3039" data-name="Path 3039" d="M207.1,100.975v8.986h31.648v79.12h8.983V100.975Z" transform="translate(-143.81 -85.153)" fill="#652d90"/>
    <path id="Path_3040" data-name="Path 3040" d="M166.309,125.823h15.779v6.805H150.339v31.647H127.786V109.956h31.647v-8.983H118.8v72.281h40.5V141.612h31.779V116.648H166.249Z" transform="translate(-102.978 -85.156)" fill="#2e3191"/>
  </g>
  <g id="Group_2639" data-name="Group 2639" transform="translate(132.071 0.157)">
    <path id="Path_3057" data-name="Path 3057" d="M375.789-438.376a32.116,32.116,0,0,1-1.068,8.6,17.413,17.413,0,0,1-3.363,6.593,15.068,15.068,0,0,1-5.871,4.245,22.266,22.266,0,0,1-8.6,1.5,19.054,19.054,0,0,1-7.713-1.575,20.313,20.313,0,0,1-6.3-4.271,20.292,20.292,0,0,1-4.271-6.3,19.035,19.035,0,0,1-1.575-7.713,19.1,19.1,0,0,1,1.575-7.687,20.218,20.218,0,0,1,4.271-6.324,20.336,20.336,0,0,1,6.3-4.27,19.064,19.064,0,0,1,7.713-1.575,20.063,20.063,0,0,1,6.324.962,18.6,18.6,0,0,1,5.23,2.669,18.843,18.843,0,0,1,4.03,4.03,22.115,22.115,0,0,1,2.775,5.044H368.1a10.473,10.473,0,0,0-2-2.641,12.554,12.554,0,0,0-2.669-1.948,13.509,13.509,0,0,0-3.151-1.226,13.725,13.725,0,0,0-3.388-.427,12.972,12.972,0,0,0-5.233,1.068,14.036,14.036,0,0,0-4.3,2.882,13.475,13.475,0,0,0-2.91,4.271,12.838,12.838,0,0,0-1.068,5.173,12.835,12.835,0,0,0,1.068,5.173,13.79,13.79,0,0,0,2.91,4.3,13.788,13.788,0,0,0,4.3,2.91,12.965,12.965,0,0,0,5.233,1.068,13.79,13.79,0,0,0,8.195-2.136,8.693,8.693,0,0,0,3.549-6.032H357.476v-6.35Z" transform="translate(-337.033 457.163)" fill="url(#linear-gradient)"/>
    <path id="Path_3058" data-name="Path 3058" d="M422.032-454.978h6.4v37.367h-6.4Z" transform="translate(-376.336 456.153)" fill="url(#linear-gradient)"/>
    <path id="Path_3059" data-name="Path 3059" d="M484.612-438.376a32.092,32.092,0,0,1-1.068,8.6,17.414,17.414,0,0,1-3.362,6.593,15.067,15.067,0,0,1-5.872,4.245,22.266,22.266,0,0,1-8.6,1.5A19.051,19.051,0,0,1,458-419.022a20.306,20.306,0,0,1-6.3-4.271,20.3,20.3,0,0,1-4.271-6.3,19.034,19.034,0,0,1-1.575-7.713,19.1,19.1,0,0,1,1.575-7.687,20.23,20.23,0,0,1,4.271-6.324,20.331,20.331,0,0,1,6.3-4.271,19.06,19.06,0,0,1,7.713-1.575,20.057,20.057,0,0,1,6.324.962,18.6,18.6,0,0,1,5.23,2.667,18.831,18.831,0,0,1,4.03,4.03,22.082,22.082,0,0,1,2.775,5.044h-7.152a10.482,10.482,0,0,0-2-2.641,12.568,12.568,0,0,0-2.67-1.948,13.507,13.507,0,0,0-3.151-1.226,13.73,13.73,0,0,0-3.388-.427,12.975,12.975,0,0,0-5.233,1.068,14.026,14.026,0,0,0-4.3,2.882,13.481,13.481,0,0,0-2.91,4.271,12.842,12.842,0,0,0-1.068,5.173,12.836,12.836,0,0,0,1.068,5.173,13.79,13.79,0,0,0,2.91,4.3,13.782,13.782,0,0,0,4.3,2.91,12.962,12.962,0,0,0,5.233,1.068A13.791,13.791,0,0,0,473.906-426a8.694,8.694,0,0,0,3.549-6.032H466.3v-6.348Z" transform="translate(-387.351 457.163)" fill="url(#linear-gradient)"/>
    <path id="Path_3060" data-name="Path 3060" d="M552.587-417.611h-6.674l-4-12.33h-8.435l-3.9,12.33h-6.674l11.958-37.367h5.766ZM535.45-435.226h4.656l-2.349-8.753Z" transform="translate(-422.977 456.153)" fill="url(#linear-gradient)"/>
  </g>
  <g id="Path_3088" data-name="Path 3088" transform="translate(131.96 57.2)">
    <path id="Path_3088-2" data-name="Path 3088" d="M36.645-88.2H7.75V-41.01h28.9v-9.206h-17.4V-60.562H34.63v-8.87H19.242v-9.542H36.648ZM71.456-41.01H85.5L66.552-65.066l18.28-23.117H71.322L55.6-67.489V-88.182H44.105V-41.01H55.6V-61.843Zm32.129-15.6v15.6H115.07V-56.6L131.4-88.185H118.5l-9.071,19.757-9.139-19.757H87.25Zm30.509-8.065a22.863,22.863,0,0,0,6.577,17.22,22.863,22.863,0,0,0,17.145,6.771c11.223,0,19.689-6.249,22.377-16.464H167.555a10.393,10.393,0,0,1-9.878,6.05c-7.056,0-11.9-5.241-11.9-13.575s4.84-13.575,11.9-13.575a10.393,10.393,0,0,1,9.878,6.048h12.633a21.9,21.9,0,0,0-22.377-16.531c-13.911,0-23.722,9.956-23.722,24.056Z" transform="translate(-7.75 88.76)" fill="url(#linear-gradient-5)"/>
  </g>
</svg>
