<?xml version="1.0" encoding="utf-8"?>
<!-- Generator: Adobe Illustrator 19.0.0, SVG Export Plug-In . SVG Version: 6.00 Build 0)  -->
<svg version="1.1" id="Layer_1" xmlns="http://www.w3.org/2000/svg" xmlns:xlink="http://www.w3.org/1999/xlink" x="0px" y="0px"
	 viewBox="0 0 177.3 80" style="enable-background:new 0 0 177.3 80;" xml:space="preserve">
<style type="text/css">
	.st0{fill:#FFFFFF;}
	.st1{fill:#74C04F;}
	.st2{fill:none;stroke:#74C04F;stroke-width:5;stroke-miterlimit:10;}
	.st3{fill:#127039;}
</style>
<g>
	<g id="XMLID_1_">
		<path id="XMLID_34_" class="st0" d="M26.3,61.6c-12.5,0-22.7-10.2-22.7-22.7s10.2-22.7,22.7-22.7S49,26.4,49,38.9
			S38.9,61.6,26.3,61.6z"/>
		<path id="XMLID_31_" class="st1" d="M26.3,18.7c11.2,0,20.2,9.1,20.2,20.2s-9.1,20.2-20.2,20.2S6.1,50,6.1,38.9
			S15.2,18.7,26.3,18.7 M26.3,13.7c-13.9,0-25.2,11.2-25.2,25.2s11.3,25.2,25.2,25.2s25.2-11.3,25.2-25.2S40.3,13.7,26.3,13.7
			L26.3,13.7z"/>
	</g>
	<g id="XMLID_3_">
		<path id="XMLID_29_" class="st0" d="M151.1,61.6c-12.5,0-22.7-10.2-22.7-22.7s10.2-22.7,22.7-22.7s22.7,10.2,22.7,22.7
			S163.6,61.6,151.1,61.6z"/>
		<path id="XMLID_26_" class="st1" d="M151.1,18.7c11.2,0,20.2,9.1,20.2,20.2s-9.1,20.2-20.2,20.2c-11.2,0-20.2-9.1-20.2-20.2
			S139.9,18.7,151.1,18.7 M151.1,13.7c-13.9,0-25.2,11.3-25.2,25.2s11.3,25.2,25.2,25.2s25.2-11.3,25.2-25.2S165,13.7,151.1,13.7
			L151.1,13.7z"/>
	</g>
	<line id="XMLID_5_" class="st2" x1="48.9" y1="39.5" x2="128.4" y2="39.5"/>
	<path id="XMLID_7_" class="st3" d="M26.3,22.8c-8.9,0-16.1,7.2-16.1,16.1S17.4,55,26.3,55s16.1-7.2,16.1-16.1S35.2,22.8,26.3,22.8z
		 M34.8,33.9l-8.6,12.7c-0.3,0.4-0.7,0.6-1.1,0.6S24.3,47,24,46.7l-5.1-5.1c-0.3-0.3-0.3-0.9,0-1.3l1.3-1.3c0.3-0.3,0.9-0.3,1.2,0
		l3.3,3.3l7.2-10.6c0.3-0.4,0.8-0.5,1.2-0.2l1.5,1C35,32.9,35.1,33.5,34.8,33.9z"/>
	<circle class="st3" cx="151.1" cy="38.9" r="16"/>
</g>
</svg>
