<svg id="Group_2816" data-name="Group 2816" xmlns="http://www.w3.org/2000/svg" width="391.495" height="52.949" viewBox="0 0 391.495 52.949">
  <g id="Group_240" data-name="Group 240">
    <g id="Group_239" data-name="Group 239">
      <g id="Group_238" data-name="Group 238">
        <g id="Group_237" data-name="Group 237">
          <g id="Group_236" data-name="Group 236">
            <g id="Group_233" data-name="Group 233" transform="translate(91.845)">
              <rect id="Rectangle_146" data-name="Rectangle 146" width="12.943" height="41.465" transform="translate(0 0.001)" fill="#b61f24"/>
              <path id="Path_437" data-name="Path 437" d="M249.331,349.2h31.913l-.027,8.931H262.242v7.187l16.189.025-.014,8.41-16.175-.036v16.948H249.331Z" transform="translate(-229.926 -349.195)" fill="#b61f24"/>
              <rect id="Rectangle_147" data-name="Rectangle 147" width="12.929" height="41.465" transform="translate(56.838 0.001)" fill="#b61f24"/>
              <path id="Path_438" data-name="Path 438" d="M300.2,373.609l11.261,3.281a19.859,19.859,0,0,1-3.605,7.625,15.694,15.694,0,0,1-6.073,4.62,23.544,23.544,0,0,1-9.23,1.526,27.692,27.692,0,0,1-11.077-1.907,17.232,17.232,0,0,1-7.43-6.7c-2.092-3.194-3.094-7.277-3.094-12.25q.008-9.949,5.513-15.306,5.508-5.308,15.572-5.3c5.252,0,9.363,1.018,12.37,3.086a18.075,18.075,0,0,1,6.668,9.4l-11.391,2.421a9.459,9.459,0,0,0-1.253-2.685,7.219,7.219,0,0,0-2.608-2.2,8.07,8.07,0,0,0-3.5-.811,7.665,7.665,0,0,0-6.7,3.4c-1.166,1.685-1.744,4.314-1.744,7.911-.018,4.441.66,7.489,2.076,9.146a7.33,7.33,0,0,0,5.9,2.5,7.255,7.255,0,0,0,5.579-2,12.076,12.076,0,0,0,2.764-5.763" transform="translate(-196.261 -349.196)" fill="#b61f24"/>
              <path id="Path_439" data-name="Path 439" d="M290.248,349.2H314.4c4.017.005,7.1,1.041,9.23,3.025a9.574,9.574,0,0,1,3.227,7.351,9.249,9.249,0,0,1-2.324,6.293,9.99,9.99,0,0,1-4.49,2.756,11.759,11.759,0,0,1,6.625,3.7,10.022,10.022,0,0,1,2.1,6.533,11.2,11.2,0,0,1-1.514,5.779,11.462,11.462,0,0,1-4.147,4.06c-3.355,1.971-9.714,1.971-10.66,1.971h-22.2Zm12.992,16.272,5.607.02c2,0,3.406-.343,4.193-1.025a3.76,3.76,0,0,0,1.184-3,3.639,3.639,0,0,0-1.166-2.853,6.54,6.54,0,0,0-4.117-1.018l-5.7-.018Zm0,16.2,6.535.018c2.212.008,3.789-.381,4.712-1.161a3.968,3.968,0,0,0,1.373-3.142,3.583,3.583,0,0,0-1.355-2.938c-.905-.742-2.47-1.117-4.743-1.125l-6.523-.018Z" transform="translate(-166.22 -349.196)" fill="#00672e"/>
              <path id="Path_440" data-name="Path 440" d="M335,383.786l-14.569-.023-2.094,6.9H305.168L320.916,349.2H335.03l15.508,41.465H337.06Zm-2.718-9.013-4.493-14.917L323.2,374.773Z" transform="translate(-142.991 -349.196)" fill="#00672e"/>
              <path id="Path_441" data-name="Path 441" d="M324.3,349.2h12.1l15.6,22.97V349.2h12.15v41.465H352l-15.6-22.789v22.789H324.3Z" transform="translate(-113.202 -349.195)" fill="#00672e"/>
              <path id="Path_442" data-name="Path 442" d="M341.7,349.2h12.873v15.749L369.861,349.2h15.9l-15.781,15.749,15.781,25.716H370.019l-9.362-16.284-6.086,6.344v9.939H341.7Z" transform="translate(-86.115 -349.195)" fill="#00672e"/>
              <g id="Group_232" data-name="Group 232" transform="translate(0 47.228)">
                <rect id="Rectangle_148" data-name="Rectangle 148" width="299.649" height="1.728" fill="#b61f24"/>
                <rect id="Rectangle_149" data-name="Rectangle 149" width="299.649" height="2.877" transform="translate(0 2.843)" fill="#00672e"/>
              </g>
            </g>
            <g id="Group_235" data-name="Group 235" transform="translate(0 0)">
              <rect id="Rectangle_150" data-name="Rectangle 150" width="4.856" height="8.727" transform="translate(0 21.784)" fill="#b61f24"/>
              <path id="Path_443" data-name="Path 443" d="M205.821,368.637,234.1,349.542l7.486,5.384-20.461,13.74Z" transform="translate(-205.821 -348.658)" fill="#00672e"/>
              <path id="Path_444" data-name="Path 444" d="M208.909,357.716h10.61v2l-5.565-.007v2.161h5.565v2.068h-5.565v2.507H208.9Z" transform="translate(-201.02 -335.931)" fill="#b61f24"/>
              <rect id="Rectangle_151" data-name="Rectangle 151" width="4.705" height="8.727" transform="translate(21.593 21.784)" fill="#b61f24"/>
              <g id="Group_234" data-name="Group 234" transform="translate(29.407 21.785)">
                <path id="Path_445" data-name="Path 445" d="M225.594,363.9a.559.559,0,0,1-.555.563h-2.26a.563.563,0,0,1-.557-.562V360.3a.559.559,0,0,1,.557-.56h2.26a.555.555,0,0,1,.555.56v.969h3.457v-1.936a1.62,1.62,0,0,0-1.649-1.613h-8.428a1.619,1.619,0,0,0-1.652,1.613v5.464a1.644,1.644,0,0,0,1.652,1.649H227.4a1.645,1.645,0,0,0,1.649-1.649v-1.757h-3.457Z" transform="translate(-217.322 -357.716)" fill="#b61f24"/>
              </g>
              <path id="Path_446" data-name="Path 446" d="M284.63,371.178c-.033-.028-.391-.271-.632-.44-4.682-3.145-31.9-21.542-31.9-21.542H235.673s34.838,23.043,35.574,23.6c1.846,1.36,2.3,1.718,2.3,2.432a2.581,2.581,0,0,1-1.337,2.015l-29.136,19.123L221.1,381.585l-15.275-.026,30.225,20.586h14.871s27.732-18.709,32.775-22c.3-.2,2.923-2.035,2.871-4.876A5.1,5.1,0,0,0,284.63,371.178Z" transform="translate(-205.821 -349.196)" fill="#00672e"/>
            </g>
          </g>
        </g>
      </g>
    </g>
  </g>
</svg>
