<svg id="Group_2820" data-name="Group 2820" xmlns="http://www.w3.org/2000/svg" width="260.143" height="35.184" viewBox="0 0 260.143 35.184">
  <g id="Group_240" data-name="Group 240">
    <g id="Group_239" data-name="Group 239">
      <g id="Group_238" data-name="Group 238">
        <g id="Group_237" data-name="Group 237">
          <g id="Group_236" data-name="Group 236">
            <g id="Group_233" data-name="Group 233" transform="translate(61.03)">
              <rect id="Rectangle_146" data-name="Rectangle 146" width="8.6" height="27.553" transform="translate(0 0.001)" fill="#b61f24"/>
              <path id="Path_437" data-name="Path 437" d="M249.331,349.2h21.206l-.018,5.935H257.91v4.776l10.757.017-.009,5.589-10.748-.024v11.261h-8.579Z" transform="translate(-236.436 -349.196)" fill="#b61f24"/>
              <rect id="Rectangle_147" data-name="Rectangle 147" width="8.591" height="27.553" transform="translate(37.768 0.001)" fill="#b61f24"/>
              <path id="Path_438" data-name="Path 438" d="M290.388,365.418l7.483,2.18a13.2,13.2,0,0,1-2.4,5.067,10.428,10.428,0,0,1-4.035,3.07,15.645,15.645,0,0,1-6.133,1.014,18.4,18.4,0,0,1-7.36-1.267,11.451,11.451,0,0,1-4.937-4.455,14.588,14.588,0,0,1-2.056-8.14q.005-6.611,3.663-10.17,3.66-3.527,10.347-3.52c3.49,0,6.222.676,8.22,2.051a12.01,12.01,0,0,1,4.431,6.247l-7.569,1.609a6.285,6.285,0,0,0-.832-1.784,4.8,4.8,0,0,0-1.733-1.459,5.362,5.362,0,0,0-2.323-.539,5.093,5.093,0,0,0-4.455,2.261,9.367,9.367,0,0,0-1.159,5.257c-.012,2.951.438,4.976,1.38,6.077a4.87,4.87,0,0,0,3.921,1.658,4.821,4.821,0,0,0,3.707-1.327,8.024,8.024,0,0,0,1.837-3.83" transform="translate(-221.321 -349.196)" fill="#b61f24"/>
              <path id="Path_439" data-name="Path 439" d="M290.248,349.2H306.3a8.712,8.712,0,0,1,6.133,2.01,6.362,6.362,0,0,1,2.144,4.885,6.146,6.146,0,0,1-1.544,4.181,6.638,6.638,0,0,1-2.983,1.832,7.814,7.814,0,0,1,4.4,2.457,6.66,6.66,0,0,1,1.4,4.341,7.441,7.441,0,0,1-1.006,3.84,7.616,7.616,0,0,1-2.756,2.7c-2.229,1.31-6.455,1.31-7.083,1.31H290.248Zm8.633,10.813,3.726.014a4.325,4.325,0,0,0,2.786-.681,2.5,2.5,0,0,0,.787-1.993,2.418,2.418,0,0,0-.775-1.9,4.346,4.346,0,0,0-2.736-.676l-3.789-.012Zm0,10.763,4.343.012a4.872,4.872,0,0,0,3.131-.771,2.637,2.637,0,0,0,.912-2.088,2.381,2.381,0,0,0-.9-1.952,5.084,5.084,0,0,0-3.152-.748l-4.334-.012Z" transform="translate(-207.833 -349.196)" fill="#00672e"/>
              <path id="Path_440" data-name="Path 440" d="M324.992,372.181l-9.681-.015-1.392,4.584h-8.752L315.632,349.2h9.379l10.3,27.553H326.36Zm-1.806-5.989-2.985-9.912-3.048,9.912Z" transform="translate(-197.404 -349.196)" fill="#00672e"/>
              <path id="Path_441" data-name="Path 441" d="M324.3,349.2h8.037l10.367,15.263V349.2h8.073v27.553h-8.073l-10.367-15.143v15.143H324.3Z" transform="translate(-184.029 -349.196)" fill="#00672e"/>
              <path id="Path_442" data-name="Path 442" d="M341.7,349.2h8.554v10.465l10.16-10.465H370.98l-10.486,10.465,10.486,17.088H360.518l-6.221-10.82-4.044,4.216v6.6H341.7Z" transform="translate(-171.867 -349.196)" fill="#00672e"/>
              <g id="Group_232" data-name="Group 232" transform="translate(0 31.382)">
                <rect id="Rectangle_148" data-name="Rectangle 148" width="199.112" height="1.149" fill="#b61f24"/>
                <rect id="Rectangle_149" data-name="Rectangle 149" width="199.112" height="1.912" transform="translate(0 1.889)" fill="#00672e"/>
              </g>
            </g>
            <g id="Group_235" data-name="Group 235" transform="translate(0 0)">
              <rect id="Rectangle_150" data-name="Rectangle 150" width="3.227" height="5.799" transform="translate(0 14.475)" fill="#b61f24"/>
              <path id="Path_443" data-name="Path 443" d="M205.821,362.23l18.793-12.688,4.974,3.578-13.6,9.13Z" transform="translate(-205.821 -348.954)" fill="#00672e"/>
              <path id="Path_444" data-name="Path 444" d="M208.908,357.716h7.05v1.327l-3.7,0v1.436h3.7v1.374h-3.7v1.666H208.9Z" transform="translate(-203.665 -343.24)" fill="#b61f24"/>
              <rect id="Rectangle_151" data-name="Rectangle 151" width="3.126" height="5.799" transform="translate(14.349 14.475)" fill="#b61f24"/>
              <g id="Group_234" data-name="Group 234" transform="translate(19.541 14.476)">
                <path id="Path_445" data-name="Path 445" d="M222.818,361.828a.372.372,0,0,1-.369.374h-1.5a.374.374,0,0,1-.37-.374v-2.4a.372.372,0,0,1,.37-.372h1.5a.369.369,0,0,1,.369.372v.644h2.3v-1.286a1.076,1.076,0,0,0-1.1-1.072h-5.6a1.076,1.076,0,0,0-1.1,1.072v3.631a1.092,1.092,0,0,0,1.1,1.1h5.6a1.093,1.093,0,0,0,1.1-1.1v-1.167h-2.3Z" transform="translate(-217.322 -357.716)" fill="#b61f24"/>
              </g>
              <path id="Path_446" data-name="Path 446" d="M258.189,363.8c-.022-.019-.26-.18-.42-.292-3.111-2.09-21.2-14.314-21.2-14.314H225.657s23.149,15.312,23.639,15.679c1.227.9,1.529,1.142,1.529,1.616a1.715,1.715,0,0,1-.889,1.339l-19.36,12.707-14.6-9.819-10.15-.017,20.084,13.679h9.882s18.428-12.432,21.778-14.617a4.229,4.229,0,0,0,1.908-3.24A3.386,3.386,0,0,0,258.189,363.8Z" transform="translate(-205.821 -349.196)" fill="#00672e"/>
            </g>
          </g>
        </g>
      </g>
    </g>
  </g>
</svg>
