<?xml version="1.0" encoding="utf-8"?>
<!-- Generator: Adobe Illustrator 19.0.0, SVG Export Plug-In . SVG Version: 6.00 Build 0)  -->
<svg version="1.1" id="Layer_1" xmlns="http://www.w3.org/2000/svg" xmlns:xlink="http://www.w3.org/1999/xlink" x="0px" y="0px"
	 viewBox="0 0 103.3 78.7" style="enable-background:new 0 0 103.3 78.7;" xml:space="preserve">
<style type="text/css">
	.st0{fill:#6DB244;}
	.st1{fill:#F1F2F2;}
	.st2{fill:none;stroke:#6DB244;stroke-width:4;stroke-linecap:round;stroke-miterlimit:10;}
</style>
<path id="XMLID_64_" class="st0" d="M88.9,3.2H16.1c-6.6,0-12,5.4-12,12v35.7c0,6.6,5.4,12,12,12h7.3v13c0,0.8,0.4,1.4,1.1,1.8
	c0.3,0.1,0.6,0.2,0.9,0.2c0.4,0,0.8-0.1,1.2-0.4l20-14.6h42.4c6.6,0,12-5.4,12-12V15.2C100.9,8.6,95.5,3.2,88.9,3.2z"/>
<path id="XMLID_65_" class="st1" d="M96.9,50.9c0,4.4-3.6,8-8,8H46c-0.4,0-0.9,0.1-1.3,0.4L27.4,71.9v-11c0-1.1-0.9-2-2-2h-9.3
	c-4.4,0-8-3.6-8-8V15.2c0-4.4,3.6-8,8-8h72.8c4.4,0,8,3.6,8,8V50.9z"/>
<line id="XMLID_2_" class="st2" x1="23.5" y1="24" x2="81.5" y2="24"/>
<line id="XMLID_6_" class="st2" x1="67" y1="42.1" x2="23.5" y2="42.1"/>
</svg>
