<?xml version="1.0" encoding="utf-8"?>
<!-- Generator: Adobe Illustrator 19.0.0, SVG Export Plug-In . SVG Version: 6.00 Build 0)  -->
<svg version="1.1" id="Layer_1" xmlns="http://www.w3.org/2000/svg" xmlns:xlink="http://www.w3.org/1999/xlink" x="0px" y="0px"
	 viewBox="0 0 164 284" style="enable-background:new 0 0 164 284;" xml:space="preserve">
<style type="text/css">
	.st0{fill:#056835;}
	.st1{fill:#FFFFFF;}
	.st2{fill:#D4EFFC;}
	.st3{fill:#FEE088;}
</style>
<g id="XMLID_1609_">
	<path id="XMLID_1585_" class="st0" d="M17.3,4.3l131.2-0.1c5.8,0,10.5,4.7,10.6,10.5l0.2,252.2c0,5.8-4.7,10.5-10.5,10.6
		l-131.2,0.1C11.7,277.6,7,272.9,7,267L6.8,14.9C6.8,9,11.5,4.3,17.3,4.3z"/>
	<path id="XMLID_1622_" class="st1" d="M24.6,22.6l116.8-0.1c6.3,0,11.4,5.1,11.4,11.4l0.2,216.1c0,6.3-5.1,11.4-11.4,11.4
		l-116.8,0.1c-6.3,0-11.4-5.1-11.4-11.4L13.2,34C13.2,27.7,18.3,22.6,24.6,22.6z"/>
	<path id="XMLID_1621_" class="st2" d="M61,13.8L61,13.8c0-1.1,0.9-1.9,1.9-1.9l40,0c1.1,0,1.9,0.9,1.9,1.9l0,0
		c0,1.1-0.9,1.9-1.9,1.9l-40,0C61.9,15.7,61,14.9,61,13.8z"/>
	<rect id="XMLID_1620_" x="13.3" y="72.2" class="st2" width="139.6" height="166.8"/>
	<path id="XMLID_1122_" class="st2" d="M116.6,46.5l-66.4,0.1c-0.7,0-1.2-0.5-1.2-1.2l0-2.8c0-0.7,0.5-1.2,1.2-1.2l66.4-0.1
		c0.7,0,1.2,0.5,1.2,1.2l0,2.8C117.8,46,117.3,46.5,116.6,46.5z"/>
	<path id="XMLID_1121_" class="st2" d="M87.8,54.5l-37.9,0c-0.5,0-0.9-0.4-0.9-0.9l0-2c0-0.5,0.4-0.9,0.9-0.9l37.9,0
		c0.5,0,0.9,0.4,0.9,0.9l0,2C88.7,54.1,88.3,54.5,87.8,54.5z"/>
	<circle id="XMLID_1617_" class="st3" cx="31.4" cy="47" r="10.9"/>
	<path id="XMLID_1613_" class="st2" d="M133.9,43.5c0,1-0.8,1.8-1.8,1.8c-1,0-1.8-0.8-1.8-1.8c0-1,0.8-1.8,1.8-1.8
		C133.1,41.8,133.9,42.6,133.9,43.5z M137.9,41.8c-1,0-1.8,0.8-1.8,1.8c0,1,0.8,1.8,1.8,1.8c1,0,1.8-0.8,1.8-1.8
		C139.7,42.6,138.9,41.8,137.9,41.8z M143.7,41.8c-1,0-1.8,0.8-1.8,1.8c0,1,0.8,1.8,1.8,1.8c1,0,1.8-0.8,1.8-1.8
		C145.4,42.6,144.7,41.8,143.7,41.8z"/>
	<g id="XMLID_1611_">
		<defs>
			<circle id="XMLID_1612_" cx="31.4" cy="47" r="10.9"/>
		</defs>
		<clipPath id="XMLID_54_">
			<use xlink:href="#XMLID_1612_"  style="overflow:visible;"/>
		</clipPath>
	</g>
	<g id="XMLID_1593_">
		<circle id="XMLID_1596_" class="st2" cx="83" cy="249.3" r="4.8"/>
		<rect id="XMLID_1595_" x="115.5" y="244.5" class="st2" width="9.5" height="9.5"/>
		<rect id="XMLID_1594_" x="41" y="244.5" class="st2" width="9.5" height="9.5"/>
	</g>
</g>
</svg>
