<?xml version="1.0" encoding="utf-8"?>
<!-- Generator: Adobe Illustrator 19.0.0, SVG Export Plug-In . SVG Version: 6.00 Build 0)  -->
<svg version="1.1" id="Layer_1" xmlns="http://www.w3.org/2000/svg" xmlns:xlink="http://www.w3.org/1999/xlink" x="0px" y="0px"
	 viewBox="0 0 500 278" style="enable-background:new 0 0 500 278;" xml:space="preserve">
<style type="text/css">
	.st0{fill:#066936;}
	.st1{fill:#6EB244;}
	.st2{fill:#056835;}
	.st3{opacity:0.1;clip-path:url(#XMLID_28_);}
	.st4{opacity:0.7;fill:#FFFFFF;}
	.st5{fill:#E0E0E0;}
	.st6{fill:#FFFFFF;}
	.st7{opacity:0.6;fill:#066936;}
	.st8{fill:#EBEBEB;}
</style>
<g id="XMLID_1610_">
	<path id="XMLID_1980_" class="st0" d="M452.4,149.5c-0.4-44.7-36.7-80.8-81.4-80.8h-33.6c-17-29.5-48.8-49.4-85.3-49.4h-65.5v25
		c-15.1,13.5-26.1,31.6-30.6,52.1c-44.2,2.8-79.2,39.6-79.2,84.5c0,46.8,37.9,84.7,84.7,84.7H431c33.2,0,60.1-26.9,60.1-60.1
		C491.1,180,475,158.1,452.4,149.5z"/>
	<path id="XMLID_1979_" class="st1" d="M452.4,149.5c-0.4-44.7-36.7-80.8-81.4-80.8h-33.6c-17-29.5-48.8-49.4-85.3-49.4h-65.5v25
		c-15.1,13.5-26.1,31.6-30.6,52.1c-44.2,2.8-79.2,39.6-79.2,84.5c0,46.8,37.9,84.7,84.7,84.7H431c33.2,0,60.1-26.9,60.1-60.1
		C491.1,180,475,158.1,452.4,149.5z"/>
	<path id="XMLID_1977_" class="st2" d="M386.9,149.5c-0.4-44.7-36.7-80.8-81.4-80.8c-10.8,0-21.1,2.1-30.5,5.9
		c-16-32.7-49.6-55.3-88.5-55.3c-47,0-86.3,33-96.1,77.1c-44.2,2.8-79.2,39.6-79.2,84.5c0,46.8,37.9,84.7,84.7,84.7h269.6
		c33.2,0,60.1-26.9,60.1-60.1C425.6,180,409.5,158.1,386.9,149.5z"/>
	<g id="XMLID_1974_">
		<defs>
			<path id="XMLID_1975_" d="M386.9,149.5c-0.4-44.7-36.7-80.8-81.4-80.8c-10.8,0-21.1,2.1-30.5,5.9c-16-32.7-49.6-55.3-88.5-55.3
				c-47,0-86.3,33-96.1,77.1c-44.2,2.8-79.2,39.6-79.2,84.5c0,46.8,37.9,84.7,84.7,84.7h269.6c33.2,0,60.1-26.9,60.1-60.1
				C425.6,180,409.5,158.1,386.9,149.5z"/>
		</defs>
		<clipPath id="XMLID_28_">
			<use xlink:href="#XMLID_1975_"  style="overflow:visible;"/>
		</clipPath>
		<path id="XMLID_1976_" class="st3" d="M452.4,149.5c-0.4-44.7-36.7-80.8-81.4-80.8c-10.8,0-21.1,2.1-30.5,5.9
			c-16-32.7-49.6-55.3-88.5-55.3c-47,0-86.3,33-96.1,77.1c-44.2,2.8-79.2,39.6-79.2,84.5c0,46.8,37.9,84.7,84.7,84.7H431
			c33.2,0,60.1-26.9,60.1-60.1C491.1,180,475,158.1,452.4,149.5z"/>
	</g>
	<g id="XMLID_1967_">
		<path id="XMLID_1971_" class="st0" d="M365.5,267H95.9c-47.4,0-86-38.6-86-86c0-44.9,34.8-82.4,79.5-85.8
			c5-21.4,17.1-40.9,34.3-54.8c17.7-14.4,40-22.3,62.8-22.3c38,0,72,21,89.1,54.9c9.5-3.7,19.6-5.6,29.8-5.6
			c45,0,81.9,36.3,82.8,81.2c23.2,9.2,38.7,32,38.7,57C426.9,239.4,399.4,267,365.5,267z M186.5,20.7c-45.2,0-85,32-94.8,76
			c-0.1,0.6-0.6,1-1.2,1c-43.7,2.8-78,39.4-78,83.2c0,46,37.4,83.4,83.4,83.4h269.6c32.4,0,58.7-26.4,58.7-58.7
			c0-24.2-15.2-46.3-37.8-54.9c-0.5-0.2-0.8-0.7-0.8-1.2c-0.4-43.8-36.3-79.5-80.1-79.5c-10.3,0-20.4,2-30,5.8
			c-0.6,0.3-1.4,0-1.7-0.6C257.3,41.6,223.9,20.7,186.5,20.7z"/>
		<path id="XMLID_1968_" class="st4" d="M365.5,267H95.9c-47.4,0-86-38.6-86-86c0-44.9,34.8-82.4,79.5-85.8
			c5-21.4,17.1-40.9,34.3-54.8c17.7-14.4,40-22.3,62.8-22.3c38,0,72,21,89.1,54.9c9.5-3.7,19.6-5.6,29.8-5.6
			c45,0,81.9,36.3,82.8,81.2c23.2,9.2,38.7,32,38.7,57C426.9,239.4,399.4,267,365.5,267z M186.5,20.7c-45.2,0-85,32-94.8,76
			c-0.1,0.6-0.6,1-1.2,1c-43.7,2.8-78,39.4-78,83.2c0,46,37.4,83.4,83.4,83.4h269.6c32.4,0,58.7-26.4,58.7-58.7
			c0-24.2-15.2-46.3-37.8-54.9c-0.5-0.2-0.8-0.7-0.8-1.2c-0.4-43.8-36.3-79.5-80.1-79.5c-10.3,0-20.4,2-30,5.8
			c-0.6,0.3-1.4,0-1.7-0.6C257.3,41.6,223.9,20.7,186.5,20.7z"/>
	</g>
	<path id="XMLID_1965_" class="st5" d="M152.1,145.5h23.2c2.5,0,4.4,2,4.4,4.4v109.9c0,2.5-2,4.4-4.4,4.4h-23.2V145.5z"/>
	<path id="XMLID_1608_" class="st6" d="M155.9,145.5h-49.8c-2.5,0-4.4,2-4.4,4.4v109.9c0,2.5,2,4.4,4.4,4.4h49.8
		c2.5,0,4.4-2,4.4-4.4V150C160.3,147.5,158.3,145.5,155.9,145.5z"/>
	<rect id="XMLID_1963_" x="101.6" y="239.7" class="st5" width="58.7" height="1.1"/>
	<rect id="XMLID_1962_" x="101.6" y="216.2" class="st5" width="58.7" height="1.1"/>
	<rect id="XMLID_1961_" x="101.6" y="192.6" class="st5" width="58.7" height="1.1"/>
	<rect id="XMLID_1960_" x="101.6" y="169.1" class="st5" width="58.7" height="1.1"/>
	<path id="XMLID_1959_" class="st7" d="M130.9,161.4h-19.6c-1.2,0-2.2,1-2.2,2.2l0,0c0,1.2,1,2.2,2.2,2.2h19.6c1.2,0,2.2-1,2.2-2.2
		l0,0C133.1,162.4,132.1,161.4,130.9,161.4z"/>
	<path id="XMLID_1958_" class="st7" d="M130.9,155.6h-19.6c-1.2,0-2.2,1-2.2,2.2l0,0c0,1.2,1,2.2,2.2,2.2h19.6c1.2,0,2.2-1,2.2-2.2
		l0,0C133.1,156.6,132.1,155.6,130.9,155.6z"/>
	<path id="XMLID_1957_" class="st7" d="M130.9,149.8h-19.6c-1.2,0-2.2,1-2.2,2.2l0,0c0,1.2,1,2.2,2.2,2.2h19.6c1.2,0,2.2-1,2.2-2.2
		l0,0C133.1,150.8,132.1,149.8,130.9,149.8z"/>
	<rect id="XMLID_1956_" x="135.2" y="161.4" class="st8" width="8.2" height="4.5"/>
	<rect id="XMLID_1955_" x="135.2" y="155.6" class="st0" width="8.2" height="4.5"/>
	<rect id="XMLID_1954_" x="135.2" y="149.8" class="st8" width="8.2" height="4.5"/>
	<rect id="XMLID_1953_" x="144.7" y="161.4" class="st8" width="8.2" height="4.5"/>
	<rect id="XMLID_1952_" x="144.7" y="155.6" class="st8" width="8.2" height="4.5"/>
	<rect id="XMLID_1951_" x="144.7" y="149.8" class="st0" width="8.2" height="4.5"/>
	<path id="XMLID_1949_" class="st8" d="M130.9,185h-19.6c-1.2,0-2.2,1-2.2,2.2l0,0c0,1.2,1,2.2,2.2,2.2h19.6c1.2,0,2.2-1,2.2-2.2
		l0,0C133.1,186,132.1,185,130.9,185z"/>
	<path id="XMLID_1948_" class="st7" d="M130.9,179.1h-19.6c-1.2,0-2.2,1-2.2,2.2l0,0c0,1.2,1,2.2,2.2,2.2h19.6c1.2,0,2.2-1,2.2-2.2
		l0,0C133.1,180.1,132.1,179.1,130.9,179.1z"/>
	<path id="XMLID_1947_" class="st7" d="M130.9,173.3h-19.6c-1.2,0-2.2,1-2.2,2.2l0,0c0,1.2,1,2.2,2.2,2.2h19.6c1.2,0,2.2-1,2.2-2.2
		l0,0C133.1,174.3,132.1,173.3,130.9,173.3z"/>
	<rect id="XMLID_1946_" x="135.2" y="185" class="st8" width="8.2" height="4.5"/>
	<rect id="XMLID_1945_" x="135.2" y="179.1" class="st8" width="8.2" height="4.5"/>
	<rect id="XMLID_1944_" x="135.2" y="173.3" class="st0" width="8.2" height="4.5"/>
	<rect id="XMLID_1943_" x="144.7" y="185" class="st8" width="8.2" height="4.5"/>
	<rect id="XMLID_1942_" x="144.7" y="179.1" class="st8" width="8.2" height="4.5"/>
	<rect id="XMLID_1941_" x="144.7" y="173.3" class="st8" width="8.2" height="4.5"/>
	<path id="XMLID_1939_" class="st7" d="M130.9,208.5h-19.6c-1.2,0-2.2,1-2.2,2.2l0,0c0,1.2,1,2.2,2.2,2.2h19.6c1.2,0,2.2-1,2.2-2.2
		l0,0C133.1,209.5,132.1,208.5,130.9,208.5z"/>
	<path id="XMLID_1938_" class="st7" d="M130.9,202.7h-19.6c-1.2,0-2.2,1-2.2,2.2l0,0c0,1.2,1,2.2,2.2,2.2h19.6c1.2,0,2.2-1,2.2-2.2
		l0,0C133.1,203.7,132.1,202.7,130.9,202.7z"/>
	<path id="XMLID_1937_" class="st7" d="M130.9,196.9h-19.6c-1.2,0-2.2,1-2.2,2.2l0,0c0,1.2,1,2.2,2.2,2.2h19.6c1.2,0,2.2-1,2.2-2.2
		l0,0C133.1,197.9,132.1,196.9,130.9,196.9z"/>
	<rect id="XMLID_1936_" x="135.2" y="208.5" class="st8" width="8.2" height="4.5"/>
	<rect id="XMLID_1935_" x="135.2" y="202.7" class="st0" width="8.2" height="4.5"/>
	<rect id="XMLID_1934_" x="135.2" y="196.9" class="st8" width="8.2" height="4.5"/>
	<rect id="XMLID_1933_" x="144.7" y="208.5" class="st8" width="8.2" height="4.5"/>
	<rect id="XMLID_1932_" x="144.7" y="202.7" class="st8" width="8.2" height="4.5"/>
	<rect id="XMLID_1931_" x="144.7" y="196.9" class="st0" width="8.2" height="4.5"/>
	<path id="XMLID_1929_" class="st7" d="M130.9,232.1h-19.6c-1.2,0-2.2,1-2.2,2.2l0,0c0,1.2,1,2.2,2.2,2.2h19.6c1.2,0,2.2-1,2.2-2.2
		l0,0C133.1,233.1,132.1,232.1,130.9,232.1z"/>
	<path id="XMLID_1607_" class="st7" d="M131.5,226.2h-20.8c-0.9,0-1.6,0.7-1.6,1.6v1.2c0,0.9,0.7,1.6,1.6,1.6h20.8
		c0.9,0,1.6-0.7,1.6-1.6v-1.2C133.1,227,132.4,226.2,131.5,226.2z"/>
	<path id="XMLID_1927_" class="st7" d="M130.9,220.4h-19.6c-1.2,0-2.2,1-2.2,2.2l0,0c0,1.2,1,2.2,2.2,2.2h19.6c1.2,0,2.2-1,2.2-2.2
		l0,0C133.1,221.4,132.1,220.4,130.9,220.4z"/>
	<rect id="XMLID_1926_" x="135.2" y="232.1" class="st8" width="8.2" height="4.5"/>
	<rect id="XMLID_1925_" x="135.2" y="226.2" class="st0" width="8.2" height="4.5"/>
	<rect id="XMLID_1924_" x="135.2" y="220.4" class="st8" width="8.2" height="4.5"/>
	<rect id="XMLID_1923_" x="144.7" y="232.1" class="st0" width="8.2" height="4.5"/>
	<rect id="XMLID_1922_" x="144.7" y="226.2" class="st8" width="8.2" height="4.5"/>
	<rect id="XMLID_1921_" x="144.7" y="220.4" class="st0" width="8.2" height="4.5"/>
	<path id="XMLID_1919_" class="st7" d="M130.9,255.6h-19.6c-1.2,0-2.2,1-2.2,2.2l0,0c0,1.2,1,2.2,2.2,2.2h19.6c1.2,0,2.2-1,2.2-2.2
		l0,0C133.1,256.6,132.1,255.6,130.9,255.6z"/>
	<path id="XMLID_1918_" class="st7" d="M130.9,249.8h-19.6c-1.2,0-2.2,1-2.2,2.2l0,0c0,1.2,1,2.2,2.2,2.2h19.6c1.2,0,2.2-1,2.2-2.2
		l0,0C133.1,250.8,132.1,249.8,130.9,249.8z"/>
	<path id="XMLID_1917_" class="st7" d="M130.9,244h-19.6c-1.2,0-2.2,1-2.2,2.2l0,0c0,1.2,1,2.2,2.2,2.2h19.6c1.2,0,2.2-1,2.2-2.2
		l0,0C133.1,245,132.1,244,130.9,244z"/>
	<rect id="XMLID_1916_" x="135.2" y="255.6" class="st0" width="8.2" height="4.5"/>
	<rect id="XMLID_1915_" x="135.2" y="249.8" class="st8" width="8.2" height="4.5"/>
	<rect id="XMLID_1914_" x="135.2" y="244" class="st8" width="8.2" height="4.5"/>
	<rect id="XMLID_1913_" x="144.7" y="255.6" class="st8" width="8.2" height="4.5"/>
	<rect id="XMLID_1912_" x="144.7" y="249.8" class="st8" width="8.2" height="4.5"/>
	<rect id="XMLID_1911_" x="144.7" y="244" class="st0" width="8.2" height="4.5"/>
	<path id="XMLID_1908_" class="st5" d="M236.7,89.4h34.2c3.6,0,6.5,2.9,6.5,6.5v161.8c0,3.6-2.9,6.5-6.5,6.5h-34.2V89.4z"/>
	<path id="XMLID_1907_" class="st6" d="M242.2,89.4h-73.3c-3.6,0-6.5,2.9-6.5,6.5v161.8c0,3.6,2.9,6.5,6.5,6.5h73.3
		c3.6,0,6.5-2.9,6.5-6.5V96C248.8,92.3,245.8,89.4,242.2,89.4z"/>
	<rect id="XMLID_1906_" x="162.4" y="228.1" class="st5" width="86.4" height="1.6"/>
	<rect id="XMLID_1905_" x="162.4" y="193.4" class="st5" width="86.4" height="1.6"/>
	<rect id="XMLID_1904_" x="162.4" y="158.7" class="st5" width="86.4" height="1.6"/>
	<rect id="XMLID_1903_" x="162.4" y="124.1" class="st5" width="86.4" height="1.6"/>
	<g id="XMLID_1893_">
		<path id="XMLID_1902_" class="st7" d="M205.4,112.8h-28.9c-1.8,0-3.3,1.5-3.3,3.3l0,0c0,1.8,1.5,3.3,3.3,3.3h28.9
			c1.8,0,3.3-1.5,3.3-3.3l0,0C208.7,114.3,207.3,112.8,205.4,112.8z"/>
		<path id="XMLID_1901_" class="st7" d="M205.4,104.2h-28.9c-1.8,0-3.3,1.5-3.3,3.3l0,0c0,1.8,1.5,3.3,3.3,3.3h28.9
			c1.8,0,3.3-1.5,3.3-3.3l0,0C208.7,105.7,207.3,104.2,205.4,104.2z"/>
		<path id="XMLID_1900_" class="st7" d="M205.4,95.7h-28.9c-1.8,0-3.3,1.5-3.3,3.3l0,0c0,1.8,1.5,3.3,3.3,3.3h28.9
			c1.8,0,3.3-1.5,3.3-3.3l0,0C208.7,97.2,207.3,95.7,205.4,95.7z"/>
		<rect id="XMLID_1899_" x="211.8" y="112.8" class="st8" width="12.1" height="6.6"/>
		<rect id="XMLID_1898_" x="211.8" y="104.2" class="st0" width="12.1" height="6.6"/>
		<rect id="XMLID_1897_" x="211.8" y="95.7" class="st8" width="12.1" height="6.6"/>
		<rect id="XMLID_1896_" x="225.8" y="112.8" class="st8" width="12.1" height="6.6"/>
		<rect id="XMLID_1895_" x="225.8" y="104.2" class="st8" width="12.1" height="6.6"/>
		<rect id="XMLID_1894_" x="225.8" y="95.7" class="st0" width="12.1" height="6.6"/>
	</g>
	<path id="XMLID_1892_" class="st7" d="M205.4,147.5h-28.9c-1.8,0-3.3,1.5-3.3,3.3l0,0c0,1.8,1.5,3.3,3.3,3.3h28.9
		c1.8,0,3.3-1.5,3.3-3.3l0,0C208.7,149,207.3,147.5,205.4,147.5z"/>
	<path id="XMLID_1891_" class="st7" d="M205.4,138.9h-28.9c-1.8,0-3.3,1.5-3.3,3.3l0,0c0,1.8,1.5,3.3,3.3,3.3h28.9
		c1.8,0,3.3-1.5,3.3-3.3l0,0C208.7,140.4,207.3,138.9,205.4,138.9z"/>
	<path id="XMLID_1890_" class="st7" d="M205.4,130.3h-28.9c-1.8,0-3.3,1.5-3.3,3.3l0,0c0,1.8,1.5,3.3,3.3,3.3h28.9
		c1.8,0,3.3-1.5,3.3-3.3l0,0C208.7,131.8,207.3,130.3,205.4,130.3z"/>
	<rect id="XMLID_1889_" x="211.8" y="147.5" class="st8" width="12.1" height="6.6"/>
	<rect id="XMLID_1888_" x="211.8" y="138.9" class="st8" width="12.1" height="6.6"/>
	<rect id="XMLID_1887_" x="211.8" y="130.3" class="st0" width="12.1" height="6.6"/>
	<rect id="XMLID_1886_" x="225.8" y="147.5" class="st0" width="12.1" height="6.6"/>
	<rect id="XMLID_1885_" x="225.8" y="138.9" class="st8" width="12.1" height="6.6"/>
	<rect id="XMLID_1884_" x="225.8" y="130.3" class="st0" width="12.1" height="6.6"/>
	<path id="XMLID_1882_" class="st7" d="M205.4,182.2h-28.9c-1.8,0-3.3,1.5-3.3,3.3l0,0c0,1.8,1.5,3.3,3.3,3.3h28.9
		c1.8,0,3.3-1.5,3.3-3.3l0,0C208.7,183.6,207.3,182.2,205.4,182.2z"/>
	<path id="XMLID_1881_" class="st7" d="M205.4,173.6h-28.9c-1.8,0-3.3,1.5-3.3,3.3l0,0c0,1.8,1.5,3.3,3.3,3.3h28.9
		c1.8,0,3.3-1.5,3.3-3.3l0,0C208.7,175.1,207.3,173.6,205.4,173.6z"/>
	<path id="XMLID_1880_" class="st7" d="M205.4,165h-28.9c-1.8,0-3.3,1.5-3.3,3.3l0,0c0,1.8,1.5,3.3,3.3,3.3h28.9
		c1.8,0,3.3-1.5,3.3-3.3l0,0C208.7,166.5,207.3,165,205.4,165z"/>
	<rect id="XMLID_1879_" x="211.8" y="182.2" class="st0" width="12.1" height="6.6"/>
	<rect id="XMLID_1878_" x="211.8" y="173.6" class="st8" width="12.1" height="6.6"/>
	<rect id="XMLID_1877_" x="211.8" y="165" class="st8" width="12.1" height="6.6"/>
	<rect id="XMLID_1876_" x="225.8" y="182.2" class="st8" width="12.1" height="6.6"/>
	<rect id="XMLID_1875_" x="225.8" y="173.6" class="st8" width="12.1" height="6.6"/>
	<rect id="XMLID_1874_" x="225.8" y="165" class="st0" width="12.1" height="6.6"/>
	<path id="XMLID_1872_" class="st7" d="M205.4,216.8h-28.9c-1.8,0-3.3,1.5-3.3,3.3l0,0c0,1.8,1.5,3.3,3.3,3.3h28.9
		c1.8,0,3.3-1.5,3.3-3.3l0,0C208.7,218.3,207.3,216.8,205.4,216.8z"/>
	<path id="XMLID_1871_" class="st8" d="M205.4,208.2h-28.9c-1.8,0-3.3,1.5-3.3,3.3l0,0c0,1.8,1.5,3.3,3.3,3.3h28.9
		c1.8,0,3.3-1.5,3.3-3.3l0,0C208.7,209.7,207.3,208.2,205.4,208.2z"/>
	<path id="XMLID_1870_" class="st7" d="M205.4,199.7h-28.9c-1.8,0-3.3,1.5-3.3,3.3l0,0c0,1.8,1.5,3.3,3.3,3.3h28.9
		c1.8,0,3.3-1.5,3.3-3.3l0,0C208.7,201.1,207.3,199.7,205.4,199.7z"/>
	<rect id="XMLID_1869_" x="211.8" y="216.8" class="st8" width="12.1" height="6.6"/>
	<rect id="XMLID_1868_" x="211.8" y="208.2" class="st0" width="12.1" height="6.6"/>
	<rect id="XMLID_1867_" x="211.8" y="199.7" class="st8" width="12.1" height="6.6"/>
	<rect id="XMLID_1866_" x="225.8" y="216.8" class="st0" width="12.1" height="6.6"/>
	<rect id="XMLID_1865_" x="225.8" y="208.2" class="st0" width="12.1" height="6.6"/>
	<rect id="XMLID_1864_" x="225.8" y="199.7" class="st8" width="12.1" height="6.6"/>
	<path id="XMLID_1862_" class="st7" d="M205.4,251.5h-28.9c-1.8,0-3.3,1.5-3.3,3.3l0,0c0,1.8,1.5,3.3,3.3,3.3h28.9
		c1.8,0,3.3-1.5,3.3-3.3l0,0C208.7,253,207.3,251.5,205.4,251.5z"/>
	<path id="XMLID_1861_" class="st7" d="M205.4,242.9h-28.9c-1.8,0-3.3,1.5-3.3,3.3l0,0c0,1.8,1.5,3.3,3.3,3.3h28.9
		c1.8,0,3.3-1.5,3.3-3.3l0,0C208.7,244.4,207.3,242.9,205.4,242.9z"/>
	<path id="XMLID_1860_" class="st7" d="M205.4,234.3h-28.9c-1.8,0-3.3,1.5-3.3,3.3l0,0c0,1.8,1.5,3.3,3.3,3.3h28.9
		c1.8,0,3.3-1.5,3.3-3.3l0,0C208.7,235.8,207.3,234.3,205.4,234.3z"/>
	<rect id="XMLID_1859_" x="211.8" y="251.5" class="st8" width="12.1" height="6.6"/>
	<rect id="XMLID_1858_" x="211.8" y="242.9" class="st8" width="12.1" height="6.6"/>
	<rect id="XMLID_1857_" x="211.8" y="234.3" class="st8" width="12.1" height="6.6"/>
	<rect id="XMLID_1856_" x="225.8" y="251.5" class="st8" width="12.1" height="6.6"/>
	<rect id="XMLID_1855_" x="225.8" y="242.9" class="st8" width="12.1" height="6.6"/>
	<rect id="XMLID_1854_" x="225.8" y="234.3" class="st0" width="12.1" height="6.6"/>
	<path id="XMLID_1606_" class="st5" d="M316,112.2h29.8c3.1,0,5.7,2.5,5.7,5.7v140.8c0,3.1-2.5,5.7-5.7,5.7H316V112.2z"/>
	<path id="XMLID_1850_" class="st6" d="M320.8,112.2H257c-3.1,0-5.7,2.5-5.7,5.7v140.8c0,3.1,2.5,5.7,5.7,5.7h63.8
		c3.1,0,5.7-2.5,5.7-5.7V117.9C326.5,114.7,323.9,112.2,320.8,112.2z"/>
	<rect id="XMLID_1849_" x="251.3" y="232.8" class="st5" width="75.2" height="1.4"/>
	<rect id="XMLID_1848_" x="251.3" y="202.6" class="st5" width="75.2" height="1.4"/>
	<rect id="XMLID_1847_" x="251.3" y="172.5" class="st5" width="75.2" height="1.4"/>
	<rect id="XMLID_1846_" x="251.3" y="142.3" class="st5" width="75.2" height="1.4"/>
	<path id="XMLID_1845_" class="st7" d="M288.8,132.6h-25.1c-1.6,0-2.9,1.3-2.9,2.9l0,0c0,1.6,1.3,2.9,2.9,2.9h25.1
		c1.6,0,2.9-1.3,2.9-2.9l0,0C291.7,133.8,290.4,132.6,288.8,132.6z"/>
	<path id="XMLID_1844_" class="st7" d="M288.8,125.1h-25.1c-1.6,0-2.9,1.3-2.9,2.9l0,0c0,1.6,1.3,2.9,2.9,2.9h25.1
		c1.6,0,2.9-1.3,2.9-2.9l0,0C291.7,126.4,290.4,125.1,288.8,125.1z"/>
	<path id="XMLID_1843_" class="st7" d="M288.8,117.6h-25.1c-1.6,0-2.9,1.3-2.9,2.9l0,0c0,1.6,1.3,2.9,2.9,2.9h25.1
		c1.6,0,2.9-1.3,2.9-2.9l0,0C291.7,118.9,290.4,117.6,288.8,117.6z"/>
	<rect id="XMLID_1842_" x="294.3" y="238.2" class="st8" width="10.5" height="5.7"/>
	<rect id="XMLID_1841_" x="294.3" y="245.7" class="st0" width="10.5" height="5.7"/>
	<rect id="XMLID_1840_" x="294.3" y="253.2" class="st8" width="10.5" height="5.7"/>
	<rect id="XMLID_1839_" x="306.5" y="238.2" class="st8" width="10.5" height="5.7"/>
	<rect id="XMLID_1838_" x="306.5" y="245.7" class="st8" width="10.5" height="5.7"/>
	<rect id="XMLID_1837_" x="306.5" y="253.2" class="st0" width="10.5" height="5.7"/>
	<path id="XMLID_1835_" class="st8" d="M288.8,162.7h-25.1c-1.6,0-2.9,1.3-2.9,2.9l0,0c0,1.6,1.3,2.9,2.9,2.9h25.1
		c1.6,0,2.9-1.3,2.9-2.9l0,0C291.7,164,290.4,162.7,288.8,162.7z"/>
	<path id="XMLID_1834_" class="st7" d="M288.8,155.2h-25.1c-1.6,0-2.9,1.3-2.9,2.9l0,0c0,1.6,1.3,2.9,2.9,2.9h25.1
		c1.6,0,2.9-1.3,2.9-2.9l0,0C291.7,156.5,290.4,155.2,288.8,155.2z"/>
	<path id="XMLID_1833_" class="st7" d="M288.8,147.8h-25.1c-1.6,0-2.9,1.3-2.9,2.9l0,0c0,1.6,1.3,2.9,2.9,2.9h25.1
		c1.6,0,2.9-1.3,2.9-2.9l0,0C291.7,149.1,290.4,147.8,288.8,147.8z"/>
	<rect id="XMLID_1832_" x="294.3" y="208.1" class="st8" width="10.5" height="5.7"/>
	<rect id="XMLID_1831_" x="294.3" y="215.5" class="st8" width="10.5" height="5.7"/>
	<rect id="XMLID_1830_" x="294.3" y="223" class="st0" width="10.5" height="5.7"/>
	<rect id="XMLID_1829_" x="306.5" y="208.1" class="st0" width="10.5" height="5.7"/>
	<rect id="XMLID_1828_" x="306.5" y="215.5" class="st8" width="10.5" height="5.7"/>
	<rect id="XMLID_1827_" x="306.5" y="223" class="st0" width="10.5" height="5.7"/>
	<path id="XMLID_1825_" class="st7" d="M288.8,192.9h-25.1c-1.6,0-2.9,1.3-2.9,2.9l0,0c0,1.6,1.3,2.9,2.9,2.9h25.1
		c1.6,0,2.9-1.3,2.9-2.9l0,0C291.7,194.1,290.4,192.9,288.8,192.9z"/>
	<path id="XMLID_1824_" class="st7" d="M288.8,185.4h-25.1c-1.6,0-2.9,1.3-2.9,2.9l0,0c0,1.6,1.3,2.9,2.9,2.9h25.1
		c1.6,0,2.9-1.3,2.9-2.9l0,0C291.7,186.7,290.4,185.4,288.8,185.4z"/>
	<path id="XMLID_1823_" class="st7" d="M288.8,177.9h-25.1c-1.6,0-2.9,1.3-2.9,2.9l0,0c0,1.6,1.3,2.9,2.9,2.9h25.1
		c1.6,0,2.9-1.3,2.9-2.9l0,0C291.7,179.2,290.4,177.9,288.8,177.9z"/>
	<rect id="XMLID_1822_" x="294.3" y="177.9" class="st0" width="10.5" height="5.7"/>
	<rect id="XMLID_1821_" x="294.3" y="185.4" class="st8" width="10.5" height="5.7"/>
	<rect id="XMLID_1820_" x="294.3" y="192.9" class="st8" width="10.5" height="5.7"/>
	<rect id="XMLID_1819_" x="306.5" y="177.9" class="st8" width="10.5" height="5.7"/>
	<rect id="XMLID_1818_" x="306.5" y="185.4" class="st8" width="10.5" height="5.7"/>
	<rect id="XMLID_1817_" x="306.5" y="192.9" class="st0" width="10.5" height="5.7"/>
	<path id="XMLID_1815_" class="st7" d="M288.8,223h-25.1c-1.6,0-2.9,1.3-2.9,2.9l0,0c0,1.6,1.3,2.9,2.9,2.9h25.1
		c1.6,0,2.9-1.3,2.9-2.9l0,0C291.7,224.3,290.4,223,288.8,223z"/>
	<path id="XMLID_1814_" class="st7" d="M288.8,215.5h-25.1c-1.6,0-2.9,1.3-2.9,2.9l0,0c0,1.6,1.3,2.9,2.9,2.9h25.1
		c1.6,0,2.9-1.3,2.9-2.9l0,0C291.7,216.8,290.4,215.5,288.8,215.5z"/>
	<path id="XMLID_1813_" class="st7" d="M288.8,208.1h-25.1c-1.6,0-2.9,1.3-2.9,2.9l0,0c0,1.6,1.3,2.9,2.9,2.9h25.1
		c1.6,0,2.9-1.3,2.9-2.9l0,0C291.7,209.4,290.4,208.1,288.8,208.1z"/>
	<rect id="XMLID_1812_" x="294.3" y="147.8" class="st8" width="10.5" height="5.7"/>
	<rect id="XMLID_1811_" x="294.3" y="155.2" class="st0" width="10.5" height="5.7"/>
	<rect id="XMLID_1810_" x="294.3" y="162.7" class="st8" width="10.5" height="5.7"/>
	<rect id="XMLID_1809_" x="306.5" y="147.8" class="st0" width="10.5" height="5.7"/>
	<rect id="XMLID_1808_" x="306.5" y="155.2" class="st8" width="10.5" height="5.7"/>
	<rect id="XMLID_1807_" x="306.5" y="162.7" class="st8" width="10.5" height="5.7"/>
	<path id="XMLID_1798_" class="st7" d="M288.8,253.2h-25.1c-1.6,0-2.9,1.3-2.9,2.9l0,0c0,1.6,1.3,2.9,2.9,2.9h25.1
		c1.6,0,2.9-1.3,2.9-2.9l0,0C291.7,254.4,290.4,253.2,288.8,253.2z"/>
	<path id="XMLID_1797_" class="st7" d="M288.8,245.7h-25.1c-1.6,0-2.9,1.3-2.9,2.9l0,0c0,1.6,1.3,2.9,2.9,2.9h25.1
		c1.6,0,2.9-1.3,2.9-2.9l0,0C291.7,247,290.4,245.7,288.8,245.7z"/>
	<path id="XMLID_1597_" class="st7" d="M289.6,238.2h-26.7c-1.2,0-2.1,0.9-2.1,2.1v1.5c0,1.2,0.9,2.1,2.1,2.1h26.7
		c1.2,0,2.1-0.9,2.1-2.1v-1.5C291.7,239.2,290.7,238.2,289.6,238.2z"/>
	<rect id="XMLID_1794_" x="294.3" y="117.6" class="st0" width="10.5" height="5.7"/>
	<rect id="XMLID_1793_" x="294.3" y="125.1" class="st8" width="10.5" height="5.7"/>
	<rect id="XMLID_1792_" x="294.3" y="132.6" class="st8" width="10.5" height="5.7"/>
	<rect id="XMLID_1791_" x="306.5" y="117.6" class="st8" width="10.5" height="5.7"/>
	<rect id="XMLID_1790_" x="306.5" y="125.1" class="st8" width="10.5" height="5.7"/>
	<rect id="XMLID_1660_" x="306.5" y="132.6" class="st0" width="10.5" height="5.7"/>
</g>
</svg>
