<svg xmlns="http://www.w3.org/2000/svg" width="346.668" height="335.588" viewBox="0 0 346.668 335.588">
  <g id="Component_7_10" data-name="Component 7 – 10" transform="translate(0.5)">
    <g id="Group_58" data-name="Group 58" transform="translate(-67.004 -96.743)" opacity="0.39">
      <g id="Group_54" data-name="Group 54">
        <path id="Path_59" data-name="Path 59" d="M342.039,116.607l27.673,36.5-28.739,2.1Z" fill="#e50021"/>
      </g>
      <g id="Group_55" data-name="Group 55">
        <path id="Path_60" data-name="Path 60" d="M369.715,153.106,397.386,189.6l-56.413-34.4Z" fill="#b61f24"/>
      </g>
      <g id="Group_56" data-name="Group 56">
        <path id="Path_61" data-name="Path 61" d="M398.452,151l-1.066,38.6-56.413-34.4,56.413,34.4-27.669-36.494Z" fill="#e50021"/>
      </g>
      <g id="Group_57" data-name="Group 57">
        <path id="Path_62" data-name="Path 62" d="M342.039,116.607,398.452,151l-28.739,2.1Z" fill="#eb4d50"/>
      </g>
    </g>
    <g id="Group_63" data-name="Group 63" transform="translate(-67.004 -96.743)" opacity="0.39">
      <g id="Group_59" data-name="Group 59">
        <path id="Path_63" data-name="Path 63" d="M285.994,130.01l23.649,40,23.651,40-54.987-46.192,54.987,46.192L309.64,170.01l-31.333-6.187Z" fill="#66c16b"/>
      </g>
      <g id="Group_60" data-name="Group 60">
        <path id="Path_64" data-name="Path 64" d="M309.64,170.01l23.654,40.005-54.987-46.192Z" fill="#2b8b30"/>
      </g>
      <g id="Group_61" data-name="Group 61">
        <path id="Path_65" data-name="Path 65" d="M340.973,176.2l-7.68,33.818-54.987-46.192,54.987,46.192-23.651-40Z" fill="#54bf59"/>
      </g>
      <g id="Group_62" data-name="Group 62">
        <path id="Path_66" data-name="Path 66" d="M285.994,130.01,340.973,176.2l-31.33-6.186Z" fill="#e2ffc5"/>
      </g>
    </g>
    <g id="Group_68" data-name="Group 68" transform="translate(-67.004 -96.743)" opacity="0.39">
      <g id="Group_64" data-name="Group 64">
        <path id="Path_67" data-name="Path 67" d="M251.949,115.243l6.926,42.388-31.094-30.444Z" fill="#eb4d50"/>
      </g>
      <g id="Group_65" data-name="Group 65">
        <path id="Path_68" data-name="Path 68" d="M196.687,96.743l31.094,30.444-24.168,11.944,55.262,18.5-55.262-18.5Z" fill="#eb4d50"/>
      </g>
      <g id="Group_66" data-name="Group 66">
        <path id="Path_69" data-name="Path 69" d="M251.949,115.243l-24.168,11.944L196.687,96.743l6.925,42.388,55.262,18.5-55.262-18.5-6.925-42.388Z" fill="#efa0a2"/>
      </g>
      <g id="Group_67" data-name="Group 67">
        <path id="Path_70" data-name="Path 70" d="M227.781,127.187l31.094,30.444-55.262-18.5Z" fill="#b61f24"/>
      </g>
    </g>
    <g id="Group_73" data-name="Group 73" transform="translate(-67.004 -96.743)" opacity="0.39">
      <g id="Group_69" data-name="Group 69">
        <path id="Path_71" data-name="Path 71" d="M406.246,241.392l6.925,42.388-31.094-30.444Z" fill="#e2ffc5"/>
      </g>
      <g id="Group_70" data-name="Group 70">
        <path id="Path_72" data-name="Path 72" d="M350.984,222.892l31.094,30.444L357.91,265.28l55.262,18.5-55.262-18.5Z" fill="#e2ffc5"/>
      </g>
      <g id="Group_71" data-name="Group 71">
        <path id="Path_73" data-name="Path 73" d="M406.246,241.392l-24.168,11.944-31.094-30.444,6.925,42.388,55.262,18.5-55.262-18.5-6.925-42.388Z" fill="#f5ffeb"/>
      </g>
      <g id="Group_72" data-name="Group 72">
        <path id="Path_74" data-name="Path 74" d="M382.078,253.336l31.094,30.444-55.262-18.5Z" fill="#70b32f"/>
      </g>
    </g>
    <g id="Group_74" data-name="Group 74" transform="translate(-67.004 -96.743)" opacity="0.26">
      <path id="Path_75" data-name="Path 75" d="M138.667,213.667,94.818,238.931,130.1,255.964Z" fill="#fff"/>
      <path id="Path_76" data-name="Path 76" d="M94.818,238.931,130.1,255.964l8.568-42.3Z" fill="#70b32f"/>
      <path id="Path_77" data-name="Path 77" d="M108.165,245.375l30.5-31.708-23.312,35.179-4.821,7.118Z" fill="#eb4d50"/>
    </g>
    <g id="Group_112" data-name="Group 112" transform="translate(-67.004 -96.743)">
      <g id="Group_77" data-name="Group 77">
        <g id="Group_76" data-name="Group 76" style="isolation: isolate">
          <g id="Group_75" data-name="Group 75">
            <path id="Path_78" data-name="Path 78" d="M352.827,248.8a9.957,9.957,0,0,1,4.512,7.815l-.3,107.12c-.008,2.875-2.045,4.029-4.542,2.588L198.662,277.508a9.933,9.933,0,0,1-4.512-7.815l.3-107.12c.008-2.869,2.039-4.033,4.542-2.588Z" fill="#1a3954"/>
          </g>
          <path id="Path_79" data-name="Path 79" d="M358.465,245.523,204.633,156.708a3.191,3.191,0,0,0-3.22-.315l-5.639,3.276a3.193,3.193,0,0,1,3.221.316L352.827,248.8a9.957,9.957,0,0,1,4.512,7.815l-.3,107.12a3.17,3.17,0,0,1-1.32,2.9l5.638-3.277a3.168,3.168,0,0,0,1.32-2.9l.3-107.12A9.959,9.959,0,0,0,358.465,245.523Z" fill="#416d94"/>
        </g>
      </g>
      <g id="Group_80" data-name="Group 80">
        <g id="Group_78" data-name="Group 78">
          <path id="Path_80" data-name="Path 80" d="M351.08,256.841l-.1,33.96-57.45,32.431-93.127-53.767.037-13.125,75.628-42.805Z" fill="#70b32f"/>
        </g>
        <g id="Group_79" data-name="Group 79">
          <path id="Path_81" data-name="Path 81" d="M276.073,213.536l-75.628,42.805-.037,13.125,93.127,53.767,57.45-32.431-.186,65.493L200.408,269.466l.282-99.453Z" fill="#e2ffc5"/>
        </g>
      </g>
      <g id="Group_111" data-name="Group 111">
        <g id="Group_83" data-name="Group 83">
          <g id="Group_82" data-name="Group 82" style="isolation: isolate">
            <g id="Group_81" data-name="Group 81">
              <path id="Path_82" data-name="Path 82" d="M351.794,365.676c2.5,1.441,2.51,3.786.029,5.227l-92.616,53.823a9.947,9.947,0,0,1-9.024,0L96.351,335.911c-2.5-1.445-2.516-3.782-.029-5.227l92.616-53.823a9.947,9.947,0,0,1,9.024,0Z" fill="#f1f1f6"/>
            </g>
            <path id="Path_83" data-name="Path 83" d="M351.823,370.9l-92.616,53.823a9.947,9.947,0,0,1-9.024,0L96.351,335.911a3.2,3.2,0,0,1-1.886-2.632l-.018,6.522a3.194,3.194,0,0,0,1.885,2.631l153.832,88.815a9.944,9.944,0,0,0,9.024,0L351.8,377.424a3.167,3.167,0,0,0,1.852-2.6l.018-6.521A3.166,3.166,0,0,1,351.823,370.9Z" fill="#e6e7e8"/>
          </g>
        </g>
        <g id="Group_84" data-name="Group 84">
          <path id="Path_84" data-name="Path 84" d="M237.541,372.746c3.459,2,3.483,5.241.041,7.241l-28.967,16.834-58.349-33.688L179.233,346.3a13.772,13.772,0,0,1,12.5,0Z" fill="#cbcbcb"/>
        </g>
        <g id="Group_95" data-name="Group 95">
          <g id="Group_89" data-name="Group 89">
            <g id="Group_88" data-name="Group 88" style="isolation: isolate">
              <g id="Group_85" data-name="Group 85">
                <path id="Path_85" data-name="Path 85" d="M333.093,361.78l-6.6,3.837-17.117-9.883,6.6-3.837Z" fill="#416d94"/>
              </g>
              <g id="Group_86" data-name="Group 86">
                <path id="Path_86" data-name="Path 86" d="M333.093,361.78l-.012,4.076-6.6,3.837.012-4.076Z" fill="#27557d"/>
              </g>
              <g id="Group_87" data-name="Group 87">
                <path id="Path_87" data-name="Path 87" d="M326.49,365.618l-.012,4.076-17.117-9.883.012-4.076Z" fill="#1a3954"/>
              </g>
            </g>
          </g>
          <g id="Group_94" data-name="Group 94">
            <g id="Group_93" data-name="Group 93" style="isolation: isolate">
              <g id="Group_90" data-name="Group 90">
                <path id="Path_88" data-name="Path 88" d="M309.64,347.822l-6.6,3.837-17.117-9.883,6.6-3.837Z" fill="#416d94"/>
              </g>
              <g id="Group_91" data-name="Group 91">
                <path id="Path_89" data-name="Path 89" d="M309.64,347.822l-.012,4.076-6.6,3.837.012-4.076Z" fill="#27557d"/>
              </g>
              <g id="Group_92" data-name="Group 92">
                <path id="Path_90" data-name="Path 90" d="M303.037,351.659l-.012,4.076-17.117-9.883.012-4.076Z" fill="#1a3954"/>
              </g>
            </g>
          </g>
        </g>
        <g id="Group_100" data-name="Group 100">
          <g id="Group_99" data-name="Group 99" style="isolation: isolate">
            <g id="Group_96" data-name="Group 96">
              <path id="Path_91" data-name="Path 91" d="M321.233,368.364l-6.6,3.837-135.5-78.228,6.6-3.837Z" fill="#416d94"/>
            </g>
            <g id="Group_97" data-name="Group 97">
              <path id="Path_92" data-name="Path 92" d="M321.233,368.364l-.012,4.076-6.6,3.837.011-4.076Z" fill="#27557d"/>
            </g>
            <g id="Group_98" data-name="Group 98">
              <path id="Path_93" data-name="Path 93" d="M314.629,372.2l-.011,4.076-135.5-78.228.012-4.076Z" fill="#1a3954"/>
            </g>
          </g>
        </g>
        <g id="Group_105" data-name="Group 105">
          <g id="Group_104" data-name="Group 104" style="isolation: isolate">
            <g id="Group_101" data-name="Group 101">
              <path id="Path_94" data-name="Path 94" d="M307.449,376.934l-6.6,3.837-135.5-78.228,6.6-3.837Z" fill="#416d94"/>
            </g>
            <g id="Group_102" data-name="Group 102">
              <path id="Path_95" data-name="Path 95" d="M307.449,376.934l-.012,4.076-6.6,3.837.012-4.076Z" fill="#27557d"/>
            </g>
            <g id="Group_103" data-name="Group 103">
              <path id="Path_96" data-name="Path 96" d="M300.846,380.771l-.012,4.076-135.5-78.228.012-4.076Z" fill="#1a3954"/>
            </g>
          </g>
        </g>
        <g id="Group_110" data-name="Group 110">
          <g id="Group_109" data-name="Group 109" style="isolation: isolate">
            <g id="Group_106" data-name="Group 106">
              <path id="Path_97" data-name="Path 97" d="M293.665,385.5l-6.6,3.837-135.5-78.228,6.6-3.837Z" fill="#416d94"/>
            </g>
            <g id="Group_107" data-name="Group 107">
              <path id="Path_98" data-name="Path 98" d="M293.665,385.5l-.012,4.076-6.6,3.837.012-4.076Z" fill="#27557d"/>
            </g>
            <g id="Group_108" data-name="Group 108">
              <path id="Path_99" data-name="Path 99" d="M287.062,389.342l-.012,4.076-135.5-78.228.012-4.076Z" fill="#1a3954"/>
            </g>
          </g>
        </g>
      </g>
    </g>
    <g id="Group_125" data-name="Group 125" transform="translate(-67.004 -96.743)">
      <g id="Group_113" data-name="Group 113">
        <path id="Path_100" data-name="Path 100" d="M254.578,217.336l9.776-1.046,9.889,12.4Z" fill="#eb9798"/>
      </g>
      <g id="Group_114" data-name="Group 114">
        <path id="Path_101" data-name="Path 101" d="M238.816,226.476l-10.891-6.288,10.912-1.168Z" fill="#ee99a5"/>
      </g>
      <g id="Group_123" data-name="Group 123" style="isolation: isolate">
        <g id="Group_115" data-name="Group 115">
          <path id="Path_102" data-name="Path 102" d="M227.925,220.188l10.87,13.847,25.7,32.734-36.711,4.276,73.28,42.308-73.28-42.308Z" fill="#eb4d50"/>
        </g>
        <g id="Group_116" data-name="Group 116">
          <path id="Path_103" data-name="Path 103" d="M264.491,266.768l36.569,46.584-73.28-42.308Z" fill="#b61f24"/>
        </g>
        <g id="Group_117" data-name="Group 117">
          <path id="Path_104" data-name="Path 104" d="M264.8,241.6a1.992,1.992,0,0,1,.918,1.778c-.007,2.2-2.22,5.174-3.426,4.478a1.774,1.774,0,0,1-.739-1.712C261.565,243.71,263.354,240.765,264.8,241.6Z" fill="#fff"/>
        </g>
        <g id="Group_118" data-name="Group 118">
          <path id="Path_105" data-name="Path 105" d="M274.243,228.689l15.331,8.852-.029,10.335-.022,7.875-.023,8.108-25,2.91-25.7-32.735.021-7.558.021-7.456.031-10.754,15.71,9.07Zm-7.289,24.062c3.2,1.85,5.212-.978,5.222-4.426.012-4.44-3.265-9.353-7.471-11.781-6.285-3.629-10.622-.578-10.638,5.276-.012,4.141,2.843,8.022,6.014,9.853,1.973,1.139,3.724-.017,3.725-.383a.565.565,0,0,0-.227-.525,1.39,1.39,0,0,0-.376-.085,3.966,3.966,0,0,1-2.4-.56c-2.8-1.619-4.6-4.177-4.593-7.165.013-4.562,3-7.677,8.489-4.51,3.236,1.869,5.774,5.445,5.764,8.789-.008,2.726-1.133,4.948-2.673,4.058a1.131,1.131,0,0,1-.512-1.018c.005-1.939,1.523-4.459,1.526-5.339a3.291,3.291,0,0,0-1.765-2.371,6.484,6.484,0,0,0-2.744-2.935c-2.772-1.6-5.784,1.07-5.8,5.239a5.523,5.523,0,0,0,2.5,4.447,3.019,3.019,0,0,0,3.553-.416,4.839,4.839,0,0,0,2.4,3.852" fill="#fff"/>
        </g>
        <g id="Group_119" data-name="Group 119">
          <path id="Path_106" data-name="Path 106" d="M264.7,236.544c4.206,2.428,7.483,7.341,7.471,11.781-.01,3.448-2.019,6.276-5.222,4.426a4.839,4.839,0,0,1-2.4-3.852,3.019,3.019,0,0,1-3.553.416,5.523,5.523,0,0,1-2.5-4.447c.012-4.169,3.024-6.839,5.8-5.239a6.484,6.484,0,0,1,2.744,2.935,3.291,3.291,0,0,1,1.765,2.371c0,.88-1.521,3.4-1.526,5.339a1.131,1.131,0,0,0,.512,1.018c1.54.89,2.665-1.332,2.673-4.058.01-3.344-2.528-6.92-5.764-8.789-5.487-3.167-8.476-.052-8.489,4.51-.009,2.988,1.789,5.546,4.593,7.165a3.966,3.966,0,0,0,2.4.56,1.39,1.39,0,0,1,.376.085.565.565,0,0,1,.227.525c0,.366-1.752,1.522-3.725.383-3.171-1.831-6.026-5.712-6.014-9.853C254.083,235.966,258.42,232.915,264.7,236.544ZM262.3,247.858c1.206.7,3.419-2.276,3.426-4.478a1.992,1.992,0,0,0-.918-1.778c-1.451-.837-3.24,2.108-3.247,4.544a1.774,1.774,0,0,0,.739,1.712" fill="#416d94"/>
        </g>
        <g id="Group_120" data-name="Group 120">
          <path id="Path_107" data-name="Path 107" d="M301.2,262.5l-.144,50.856L264.5,266.769l25-2.911Z" fill="#eb4d50"/>
        </g>
        <g id="Group_121" data-name="Group 121">
          <path id="Path_108" data-name="Path 108" d="M289.545,247.876,301.2,262.5l-11.682-6.745Z" fill="#ee99a5"/>
        </g>
        <g id="Group_122" data-name="Group 122">
          <path id="Path_109" data-name="Path 109" d="M289.523,255.751,301.2,262.5,289.5,263.858Z" fill="#f57577"/>
        </g>
      </g>
      <g id="Group_124" data-name="Group 124">
        <path id="Path_110" data-name="Path 110" d="M238.795,234.034l-10.87-13.846,10.891,6.288Z" fill="#f57577"/>
      </g>
    </g>
    <path id="Path_111" data-name="Path 111" stroke="#eb4d50" d="M104.916,255.751l-32.207,18.6A11.409,11.409,0,0,0,67,284.228h0a11.411,11.411,0,0,0,17.01,9.942l56.79-31.985a5.96,5.96,0,0,1,8.885,5.193h0a5.959,5.959,0,0,1-2.98,5.162L76.3,313.19A18.6,18.6,0,0,0,67,329.3v7.623a13.752,13.752,0,0,0,6.8,11.866L141.744,388.6a16.382,16.382,0,0,0,16.473.053l9.086-5.246" fill="none" transform="translate(-67.004 -96.743)" stroke-linecap="round" stroke-linejoin="round" stroke-width="1" stroke-dasharray="3"/>
    <line id="Line_1" data-name="Line 1" y2="10.205" transform="translate(140.746 48.257)" fill="none" stroke="#fff" stroke-linecap="round" stroke-linejoin="round" stroke-width="2"/>
    <line id="Line_2" data-name="Line 2" y2="6.433" transform="translate(146.241 50.199)" fill="none" stroke="#fff" stroke-linecap="round" stroke-linejoin="round" stroke-width="2"/>
    <line id="Line_3" data-name="Line 3" y2="14.386" transform="translate(181.496 62.621)" fill="none" stroke="#fff" stroke-linecap="round" stroke-linejoin="round" stroke-width="2"/>
    <line id="Line_4" data-name="Line 4" y2="14.193" transform="translate(187.063 69.814)" fill="none" stroke="#fff" stroke-linecap="round" stroke-linejoin="round" stroke-width="2"/>
    <line id="Line_5" data-name="Line 5" y2="40.191" transform="translate(321.496 90.177)" fill="none" stroke="#fff" stroke-linecap="round" stroke-linejoin="round" stroke-width="2"/>
    <line id="Line_6" data-name="Line 6" y2="10.08" transform="translate(314.246 90.177)" fill="none" stroke="#fff" stroke-linecap="round" stroke-linejoin="round" stroke-width="2"/>
    <line id="Line_7" data-name="Line 7" y2="13.269" transform="translate(314.246 106.278)" fill="none" stroke="#fff" stroke-linecap="round" stroke-linejoin="round" stroke-width="2"/>
    <line id="Line_8" data-name="Line 8" y2="24.146" transform="translate(213.746 74.611)" fill="none" stroke="#fff" stroke-linecap="round" stroke-linejoin="round" stroke-width="2"/>
    <line id="Line_9" data-name="Line 9" y2="10.722" transform="translate(218.991 79.454)" fill="none" stroke="#fff" stroke-linecap="round" stroke-linejoin="round" stroke-width="2"/>
    <line id="Line_10" data-name="Line 10" y2="25.293" transform="translate(304.496 180.507)" fill="none" stroke="#fff" stroke-linecap="round" stroke-linejoin="round" stroke-width="2"/>
    <line id="Line_11" data-name="Line 11" y2="22.719" transform="translate(310.746 193.154)" fill="none" stroke="#fff" stroke-linecap="round" stroke-linejoin="round" stroke-width="2"/>
    <line id="Line_12" data-name="Line 12" y2="13.649" transform="translate(338.214 188.314)" fill="none" stroke="#fff" stroke-linecap="round" stroke-linejoin="round" stroke-width="2"/>
    <line id="Line_13" data-name="Line 13" y2="26.443" transform="translate(284.076 69.814)" fill="none" stroke="#fff" stroke-linecap="round" stroke-linejoin="round" stroke-width="2"/>
    <line id="Line_14" data-name="Line 14" y2="12.229" transform="translate(252.246 106.278)" fill="none" stroke="#fff" stroke-linecap="round" stroke-linejoin="round" stroke-width="2"/>
  </g>
</svg>
